<?xml version="1.0" standalone="no"?>
<!DOCTYPE svg PUBLIC "-//W3C//DTD SVG 20010904//EN"
 "http://www.w3.org/TR/2001/REC-SVG-20010904/DTD/svg10.dtd">
<svg version="1.0" xmlns="http://www.w3.org/2000/svg"
 width="512.000000pt" height="512.000000pt" viewBox="0 0 512.000000 512.000000"
 preserveAspectRatio="xMidYMid meet">

<g transform="translate(0.000000,512.000000) scale(0.100000,-0.100000)"
fill="#000000" stroke="none">
<path d="M1 4618 c1 -425 3 -495 13 -451 42 172 186 321 355 365 56 14 120 17
433 17 427 1 440 -1 520 -87 62 -66 82 -123 76 -217 -6 -89 -38 -150 -106
-202 -76 -58 -113 -63 -434 -63 l-288 0 0 -1565 0 -1565 1565 0 1565 0 0 298
c0 168 4 313 10 333 14 51 59 114 105 147 145 106 343 56 422 -106 l28 -57 0
-590 0 -590 -1920 0 -1920 0 -70 22 c-86 27 -152 68 -216 134 -53 54 -115 169
-128 239 -6 29 -9 -80 -10 -317 l-1 -363 2560 0 2560 0 -1 1668 c-1 965 -5
1648 -10 1623 -11 -55 -59 -159 -96 -208 -15 -20 -161 -148 -323 -283 -162
-136 -438 -367 -614 -514 -175 -147 -340 -278 -366 -291 -197 -100 -442 -13
-538 192 l-27 58 -3 293 -3 292 -302 0 c-264 0 -310 -2 -367 -19 -224 -64
-366 -216 -432 -461 -31 -119 -32 -302 0 -413 46 -161 128 -290 276 -437 67
-66 86 -90 84 -109 -7 -56 -64 -52 -281 20 -550 180 -884 549 -963 1064 -22
138 -14 433 15 560 116 518 477 838 1051 930 74 12 186 15 507 15 l412 0 3
283 c3 280 3 282 29 337 76 162 250 256 421 229 84 -14 134 -39 229 -115 215
-174 1128 -944 1165 -982 52 -54 100 -142 118 -218 13 -53 14 32 15 774 l1
832 -2560 0 -2560 0 1 -502z"/>
</g>
</svg>
