<?xml version="1.0" standalone="no"?>
<!DOCTYPE svg PUBLIC "-//W3C//DTD SVG 20010904//EN"
 "http://www.w3.org/TR/2001/REC-SVG-20010904/DTD/svg10.dtd">
<svg version="1.0" xmlns="http://www.w3.org/2000/svg"
 width="1368.000000pt" height="1368.000000pt" viewBox="0 0 1368.000000 1368.000000"
 preserveAspectRatio="xMidYMid meet">
<metadata>
Created by potrace 1.14, written by Peter Selinger 2001-2017
</metadata>
<g transform="translate(0.000000,1368.000000) scale(0.100000,-0.100000)"
fill="#000000" stroke="none">
<path d="M5983 12751 c-6 -10 -25 -21 -42 -24 -18 -4 -31 -13 -31 -21 0 -8 -6
-17 -12 -19 -10 -4 -9 -8 2 -16 25 -18 -8 -32 -60 -25 -42 5 -47 3 -80 -30
-40 -42 -98 -74 -122 -69 -15 4 -84 -21 -130 -47 -10 -6 -26 -10 -37 -10 -10
0 -25 -8 -32 -17 -15 -18 -15 -18 35 3 12 4 13 -2 5 -33 -4 -21 -6 -46 -3 -55
5 -16 -4 -22 -23 -15 -4 1 -6 9 -5 19 2 9 -2 20 -9 24 -12 7 -11 -11 6 -92 5
-24 3 -33 -10 -38 -22 -8 -25 -5 -29 25 -2 13 -7 33 -11 43 -5 12 -2 37 8 65
l16 46 -25 -29 c-22 -24 -24 -34 -18 -75 3 -25 6 -48 6 -51 0 -67 -5 -90 -25
-113 -12 -15 -30 -27 -40 -27 -19 0 -23 -15 -7 -25 16 -10 -8 -47 -28 -43 -26
4 -42 -11 -42 -38 0 -22 -3 -24 -22 -18 -13 5 -43 7 -66 6 -30 -2 -42 1 -37 8
5 7 -2 9 -20 4 -24 -6 -71 -8 -100 -5 -21 3 21 21 48 21 15 0 27 5 27 11 0 8
-13 9 -42 4 -24 -3 -61 -9 -83 -12 -21 -2 -43 -7 -47 -9 -4 -3 -8 2 -8 11 0 9
4 14 9 11 4 -3 17 1 27 9 22 17 7 19 -31 5 -18 -7 -25 -15 -21 -25 6 -18 -10
-30 -18 -13 -4 9 -8 10 -11 2 -13 -27 -34 -48 -41 -42 -4 4 -1 14 6 23 15 18
10 19 -21 3 -51 -27 -97 -65 -179 -148 -46 -47 -93 -90 -105 -96 -11 -6 -19
-16 -17 -24 4 -16 -27 -50 -45 -50 -19 0 -16 9 10 31 37 31 13 21 -28 -11 -23
-18 -50 -30 -67 -30 -33 0 -93 -38 -154 -97 -39 -38 -81 -114 -145 -263 -17
-41 -40 -84 -50 -95 -52 -56 -69 -79 -69 -94 -1 -21 -38 -82 -76 -123 -51 -56
-111 -142 -119 -168 -6 -22 34 32 71 95 15 27 29 29 31 5 1 -11 -2 -20 -8 -20
-5 0 -9 -8 -9 -17 0 -15 4 -13 20 7 12 14 19 35 17 48 -3 12 -2 20 1 17 3 -2
12 1 20 8 13 10 15 9 8 -8 -4 -11 -26 -75 -48 -142 -25 -75 -47 -123 -55 -123
-17 0 -17 5 7 68 29 75 25 87 -8 20 -29 -63 -48 -73 -55 -30 l-4 27 -2 -27 c0
-15 6 -34 15 -42 9 -10 15 -31 14 -54 -3 -59 -1 -70 16 -87 11 -11 14 -25 10
-45 -4 -20 -1 -30 7 -30 8 0 8 -3 -2 -9 -7 -5 -10 -14 -7 -20 10 -15 26 -4 26
18 0 10 9 21 20 24 19 5 20 2 14 -61 -4 -37 -14 -79 -22 -94 -19 -32 -10 -47
15 -27 17 13 17 13 3 -5 -21 -26 -21 -321 -1 -359 10 -19 11 -33 3 -55 -6 -17
-7 -46 -2 -73 5 -24 5 -45 0 -47 -4 -2 -6 -11 -3 -21 3 -10 -2 -32 -11 -49
-12 -23 -13 -31 -3 -35 9 -3 9 -8 -2 -21 -8 -9 -15 -38 -16 -64 -2 -26 -6 -56
-10 -67 -6 -17 -5 -18 5 -5 10 12 10 10 4 -10 -4 -14 -6 -42 -6 -62 1 -20 -3
-40 -8 -43 -6 -4 -4 -17 7 -35 14 -24 14 -31 3 -45 -7 -9 -15 -33 -17 -53 -2
-20 -8 -41 -13 -47 -6 -7 -7 -14 -5 -17 3 -3 1 -17 -5 -32 -7 -19 -6 -32 3
-47 8 -13 9 -22 2 -27 -13 -9 -17 -31 -9 -51 11 -27 13 -123 3 -149 -7 -18 -6
-28 2 -33 6 -3 12 -18 12 -33 0 -14 4 -26 9 -26 5 0 4 -9 -2 -19 -5 -11 -10
-35 -10 -55 0 -19 -4 -37 -9 -41 -6 -3 -4 -17 5 -33 17 -32 19 -66 3 -56 -8 4
-9 -1 -4 -17 5 -13 8 -36 7 -51 0 -18 4 -28 14 -28 12 0 12 -5 -2 -31 -10 -20
-11 -28 -3 -24 9 6 10 1 5 -19 -5 -19 -2 -28 9 -32 10 -4 15 -20 15 -50 0 -36
-3 -44 -18 -44 -32 0 -32 -12 -1 -51 18 -24 35 -36 44 -32 18 6 20 -8 3 -25
-17 -17 -3 -25 21 -12 17 9 21 8 21 -5 0 -8 5 -15 10 -15 7 0 7 -7 0 -20 -9
-16 -7 -24 5 -36 8 -8 15 -20 15 -26 0 -5 7 -8 15 -4 13 4 14 2 5 -14 -7 -14
-7 -20 0 -20 5 0 10 5 10 10 0 24 18 7 24 -22 15 -76 28 -109 39 -105 9 3 12
-5 9 -29 -2 -19 -7 -34 -11 -34 -3 0 -19 14 -35 31 -17 16 -40 32 -53 35 -13
4 -23 11 -24 18 0 6 -4 2 -8 -9 -7 -18 -21 -7 -113 88 -83 85 -114 110 -152
123 -40 14 -52 14 -72 4 -13 -7 -26 -21 -29 -31 -3 -9 -13 -23 -21 -30 -13
-10 -17 -10 -25 2 -6 10 -9 7 -9 -13 0 -14 4 -28 10 -30 6 -2 6 -9 0 -17 -6
-11 -11 -6 -18 20 -6 20 -11 26 -11 14 -1 -11 -10 -26 -21 -33 -15 -9 -20 -23
-20 -58 0 -42 1 -44 16 -29 31 31 49 15 51 -45 1 -30 5 -68 10 -84 l9 -29 17
34 c14 28 17 30 17 12 0 -13 3 -23 8 -23 4 0 6 -53 4 -117 -2 -65 -3 -137 -2
-161 1 -74 -17 -84 -25 -14 -4 34 -12 65 -17 69 -7 4 -9 -3 -5 -18 3 -13 7
-89 8 -168 2 -166 17 -331 30 -347 5 -7 10 -28 11 -47 1 -20 5 -34 11 -30 5 3
6 -3 2 -16 -4 -15 -2 -21 8 -21 15 0 42 -58 32 -68 -10 -10 -36 23 -32 40 3
10 1 18 -4 18 -5 0 -14 11 -19 25 -5 14 -13 25 -18 25 -5 0 5 -29 22 -65 25
-52 35 -63 49 -59 14 4 38 -14 94 -73 41 -43 89 -99 106 -125 17 -27 34 -48
39 -48 14 0 -1 98 -21 138 -11 20 -54 70 -96 111 -83 79 -134 166 -156 270 -6
28 -15 51 -19 51 -21 0 -22 70 -2 127 11 32 41 143 67 247 52 210 77 286 103
308 22 19 61 21 90 6 18 -10 25 -9 31 1 10 16 53 -40 50 -66 -3 -34 1 -43 46
-90 25 -27 54 -58 66 -70 25 -27 22 -56 -6 -61 -35 -7 -82 -50 -88 -80 -3 -16
-26 -51 -50 -77 -38 -40 -45 -56 -51 -101 -3 -29 -15 -68 -26 -87 -39 -66 -23
-185 33 -244 31 -34 40 -28 33 18 -6 39 -4 48 35 136 16 37 104 133 122 133 7
0 6 4 -3 10 -13 9 -13 11 0 20 26 17 40 11 40 -18 0 -15 5 -33 12 -40 9 -9 9
-18 0 -37 -17 -37 -15 -45 13 -45 14 0 25 4 25 8 0 5 14 24 31 43 32 35 69
103 69 126 0 7 6 13 14 13 8 0 15 -17 19 -47 3 -27 14 -64 23 -83 10 -19 18
-52 17 -72 0 -31 3 -38 18 -38 11 0 19 -7 19 -16 0 -9 5 -12 13 -8 6 4 4 -2
-5 -13 -22 -24 -23 -33 -4 -33 12 0 12 -7 4 -36 -7 -25 -6 -40 1 -47 6 -6 11
-19 11 -30 0 -11 5 -16 13 -12 6 4 4 0 -5 -8 -10 -8 -14 -18 -10 -23 4 -5 -3
0 -16 10 -26 22 -38 16 -23 -12 7 -13 7 -29 1 -48 -5 -16 -12 -46 -15 -67 -5
-28 -10 -37 -20 -33 -8 3 -17 1 -20 -4 -16 -26 -36 10 -54 100 -39 188 -42
195 -89 161 -24 -17 -30 -30 -35 -73 -5 -48 -2 -58 28 -105 19 -28 42 -54 52
-57 28 -9 42 -54 48 -146 5 -83 21 -120 50 -120 7 0 16 -11 19 -25 9 -36 -3
-259 -14 -263 -5 -2 -12 -19 -16 -38 -3 -19 -9 -34 -13 -34 -4 0 -15 -13 -24
-30 -10 -16 -21 -29 -25 -28 -12 2 -42 -14 -42 -22 0 -13 53 5 99 34 23 15 52
43 63 62 11 19 23 33 25 30 6 -6 27 -158 49 -361 8 -82 29 -217 45 -300 16
-82 32 -179 35 -215 3 -36 10 -68 15 -71 11 -6 1 -41 -15 -51 -8 -5 -7 -11 2
-20 9 -9 12 -9 12 5 0 9 5 17 11 17 6 0 8 -7 5 -17 -4 -9 -1 -20 6 -25 10 -6
10 -8 1 -8 -7 0 -13 -9 -13 -19 0 -11 -5 -23 -10 -26 -6 -4 -7 -23 -4 -44 4
-24 2 -41 -5 -45 -6 -4 -9 -12 -5 -17 3 -5 10 -7 15 -4 5 4 9 -1 9 -9 0 -9 -4
-16 -9 -16 -5 0 -11 -9 -14 -20 -3 -11 -2 -20 3 -20 4 0 8 -20 8 -45 1 -25 -3
-45 -8 -45 -6 0 -10 -5 -10 -10 0 -6 12 -8 28 -5 26 5 26 5 5 -6 -27 -14 -30
-29 -7 -29 14 0 14 -3 4 -15 -9 -10 -9 -15 -1 -15 6 0 11 -4 11 -10 0 -5 -6
-7 -12 -5 -8 3 -13 -4 -13 -20 0 -27 10 -33 18 -12 6 13 10 -16 8 -44 -1 -9 5
-19 14 -22 20 -8 20 -37 -1 -37 -8 0 -12 -4 -9 -10 3 -5 18 -10 33 -10 25 -1
25 -2 10 -14 -10 -7 -18 -18 -18 -25 0 -6 -8 -11 -17 -12 -11 0 -13 -3 -5 -6
6 -2 13 -23 13 -46 1 -23 3 -34 6 -24 2 9 11 17 19 17 8 0 14 -8 14 -17 0 -15
-2 -16 -10 -3 -8 12 -10 12 -10 -5 0 -11 -7 -33 -15 -49 -17 -33 -18 -36 -6
-36 5 0 11 10 14 22 5 18 9 19 21 9 18 -15 36 -7 36 17 0 13 3 13 12 4 8 -8 9
-15 3 -20 -17 -11 -15 -62 2 -62 8 0 11 -4 8 -10 -3 -5 3 -10 14 -10 12 0 21
-4 21 -10 0 -5 -11 -10 -25 -10 -25 0 -31 -13 -19 -44 9 -25 22 -19 26 11 l3
27 19 -28 c10 -16 21 -47 24 -70 3 -22 10 -44 16 -48 7 -4 4 -13 -7 -26 -19
-21 -23 -37 -5 -26 6 4 24 8 40 9 23 2 31 -3 39 -22 6 -16 5 -31 -2 -45 -6
-11 -9 -31 -6 -44 2 -13 1 -21 -3 -19 -16 10 -18 -38 -3 -53 14 -14 13 -17 -3
-29 -13 -10 -15 -16 -7 -24 16 -16 60 20 55 44 -2 11 3 17 13 17 14 0 16 -6
10 -27 -3 -15 -12 -31 -18 -35 -7 -5 -2 -8 13 -9 21 -1 22 -2 5 -6 -11 -3 -23
-10 -27 -17 -5 -7 -8 -5 -8 7 0 30 -17 18 -18 -13 -1 -26 3 -30 24 -30 17 0
23 4 18 12 -5 8 -2 9 10 5 9 -4 14 -3 11 2 -3 5 -1 12 5 16 5 3 10 1 10 -5 0
-7 7 -10 15 -6 11 4 15 -2 15 -23 0 -24 -3 -28 -26 -25 -14 1 -23 0 -20 -3 3
-3 -2 -11 -11 -18 -21 -15 -10 -32 26 -40 29 -6 48 -39 30 -51 -5 -3 -5 -13 1
-25 9 -16 7 -19 -10 -19 -11 0 -20 -4 -20 -10 0 -5 7 -10 15 -10 43 0 125 -82
125 -125 0 -9 -7 -18 -17 -22 -14 -5 -13 -8 7 -15 15 -5 32 -3 53 7 21 10 34
12 41 5 7 -7 3 -10 -12 -10 -24 0 -27 -7 -13 -29 5 -8 15 -12 23 -9 8 3 23 -1
33 -9 20 -15 20 -15 0 -9 -14 4 -26 -3 -39 -22 -11 -15 -16 -24 -11 -20 4 4
14 3 22 -3 7 -6 13 -8 13 -3 0 11 20 -18 20 -28 0 -4 -18 -11 -40 -14 -49 -8
-48 -31 1 -26 19 2 39 7 44 11 21 16 44 19 48 7 4 -10 -1 -12 -15 -8 -14 3
-19 1 -17 -7 3 -7 8 -12 13 -11 5 1 12 -3 16 -9 3 -6 29 -13 56 -16 33 -3 55
-12 66 -25 20 -25 31 -26 24 -2 -3 11 4 23 18 34 24 17 24 17 30 -23 4 -22 3
-45 0 -51 -5 -7 -1 -9 9 -5 10 3 17 2 17 -3 0 -13 -26 -13 -52 1 -11 6 -22 8
-25 6 -7 -8 7 -48 16 -43 11 7 36 -12 28 -21 -5 -4 -12 -2 -16 6 -6 10 -10 9
-14 -3 -9 -24 -8 -31 4 -31 6 0 17 -9 24 -19 12 -16 17 -17 30 -6 12 10 15 10
15 -4 0 -9 3 -17 8 -17 4 -1 23 -3 42 -5 19 -2 39 -9 44 -14 14 -14 28 -12 21
3 -4 6 0 4 8 -5 8 -10 22 -18 31 -18 12 0 15 -6 10 -25 -4 -18 -2 -25 8 -25 8
0 27 -19 41 -41 22 -33 25 -44 16 -56 -16 -19 0 -35 37 -36 35 -2 55 -24 48
-53 -4 -13 0 -23 10 -27 8 -3 20 -16 26 -29 10 -22 10 -22 -4 -4 -15 19 -16
18 -24 -4 l-9 -24 -38 37 c-43 42 -55 46 -55 17 0 -12 10 -25 25 -32 14 -6 25
-19 25 -28 0 -24 42 -34 57 -14 14 19 35 10 75 -33 15 -15 32 -32 37 -38 35
-35 48 -54 43 -61 -4 -3 0 -4 8 -2 15 5 15 9 7 38 -2 8 -2 12 0 8 7 -11 53
-10 53 2 0 5 -8 14 -17 19 -10 6 -12 11 -6 11 16 0 53 -31 48 -41 -8 -13 21
-28 42 -23 12 3 23 14 26 25 3 11 14 19 25 19 27 0 45 25 40 55 -7 32 23 35
37 3 6 -12 24 -26 40 -32 51 -18 75 -36 74 -54 0 -10 -3 -12 -6 -4 -2 6 -11
12 -20 12 -8 0 -22 7 -31 16 -14 15 -17 15 -27 0 -17 -23 -38 -20 -32 4 6 23
-1 25 -25 6 -22 -16 -24 -72 -4 -79 8 -3 17 1 20 9 6 15 39 17 70 5 17 -7 17
-8 2 -23 -19 -20 -11 -48 14 -48 10 0 20 -9 23 -21 5 -17 11 -20 35 -14 18 4
44 0 65 -9 31 -12 37 -13 48 0 12 14 12 14 -35 28 -8 3 -20 14 -26 25 -9 18
-7 21 15 27 29 7 31 16 10 34 -20 16 -19 46 1 54 24 9 26 8 14 -15 -7 -11 -10
-23 -7 -25 8 -9 57 8 51 17 -3 5 1 9 9 9 9 0 14 -10 13 -27 -1 -19 5 -29 17
-31 10 -2 17 3 17 12 0 9 9 16 21 16 11 0 18 3 16 8 -3 4 8 7 24 7 40 0 41 19
2 23 -25 2 -33 8 -33 23 0 10 -4 19 -10 19 -5 0 -10 10 -10 21 0 16 -5 20 -19
16 -24 -6 -46 7 -37 22 9 15 53 3 89 -23 23 -16 25 -21 12 -29 -26 -14 -17
-25 27 -32 28 -5 43 -4 46 4 2 7 13 6 34 -5 18 -9 34 -12 41 -6 20 15 47 22
47 12 0 -6 -7 -10 -15 -10 -8 0 -15 -7 -15 -15 0 -8 -9 -15 -19 -15 -21 0 -37
-17 -27 -28 4 -3 16 -1 26 6 25 15 26 15 26 -6 0 -11 -7 -18 -20 -18 -10 1
-21 -5 -23 -11 -3 -9 8 -13 36 -13 23 0 41 5 41 10 0 6 9 10 20 10 11 0 23 7
26 15 11 28 32 17 28 -15 -3 -22 1 -30 12 -30 10 0 14 6 11 15 -4 8 -2 17 4
21 6 4 5 11 -3 21 -7 9 -12 18 -10 20 9 12 -1 12 -20 -1 -12 -9 -34 -16 -48
-15 l-25 0 23 11 c12 6 22 17 22 25 0 7 7 13 15 13 8 0 15 5 15 11 0 6 -7 9
-15 5 -9 -3 -15 0 -15 8 0 19 29 25 83 16 26 -4 47 -5 47 -3 0 14 -33 33 -49
28 -10 -3 -23 1 -30 9 -10 11 -4 13 34 11 25 -2 45 1 45 6 0 5 5 9 12 9 9 0 9
-3 0 -12 -16 -16 -15 -28 3 -28 18 0 19 -9 0 -33 -9 -13 -20 -17 -34 -12 -15
5 -21 2 -21 -9 0 -19 23 -21 50 -3 17 10 22 9 29 -2 5 -7 14 -10 20 -6 9 5 8
10 -4 19 -14 10 -12 13 15 23 31 12 39 6 18 -15 -10 -10 -10 -15 2 -22 22 -14
40 -12 46 5 4 8 13 15 21 15 25 0 73 30 73 46 0 10 -6 14 -15 10 -12 -4 -13
-2 -2 14 6 11 16 20 21 20 4 0 3 7 -5 16 -12 14 -14 13 -21 -6 -6 -17 -11 -20
-22 -11 -10 8 -21 7 -45 -5 -17 -8 -31 -20 -31 -25 0 -6 -5 -7 -10 -4 -15 9
-7 17 37 40 21 11 43 27 50 36 7 9 26 19 44 23 23 4 30 10 25 22 -7 19 12 57
25 49 9 -6 9 -35 -1 -45 -18 -18 -29 -50 -19 -56 6 -3 7 -9 3 -13 -5 -3 -15
-16 -21 -28 -11 -20 -11 -22 5 -17 10 4 13 3 6 -3 -17 -13 -25 -43 -18 -69 9
-34 22 -30 26 9 2 19 8 31 16 29 7 -1 18 9 24 23 14 31 22 31 42 4 16 -24 36
-18 36 12 0 10 5 19 10 19 6 0 10 13 10 29 0 30 26 46 56 34 20 -7 18 -16 -11
-37 -29 -22 -33 -38 -7 -34 20 3 47 36 47 58 0 23 92 24 98 1 3 -9 5 -4 6 11
1 22 -3 26 -16 21 -13 -5 -15 -2 -11 15 4 12 3 22 -2 22 -4 0 -10 -9 -13 -21
-4 -13 -10 -18 -17 -14 -9 6 -9 10 1 16 8 5 11 9 6 9 -4 0 -1 14 8 30 11 21
22 30 38 29 l22 -2 -22 -4 c-22 -4 -33 -33 -14 -33 11 0 61 -44 61 -54 0 -3
-7 -6 -16 -6 -9 0 -14 -6 -11 -12 2 -7 10 -12 16 -10 14 3 14 -11 1 -24 -7 -7
-1 -11 20 -11 22 0 27 3 17 9 -14 7 -16 47 -4 78 3 8 10 29 15 45 9 25 11 26
11 8 1 -16 5 -21 17 -16 12 4 13 7 3 14 -21 13 2 26 50 28 11 1 10 5 -5 16
-17 14 -15 14 26 8 25 -3 48 -11 53 -17 5 -7 13 -3 26 13 13 18 30 25 67 28
27 2 56 11 65 19 9 8 23 14 30 12 9 -2 15 8 17 25 3 27 4 27 17 10 17 -24 33
-8 17 17 -7 11 -8 20 -3 20 5 0 11 -6 14 -12 5 -17 79 24 126 69 19 18 38 33
43 33 4 0 8 7 8 15 0 8 6 15 13 15 6 0 20 12 29 28 10 15 42 62 73 105 30 43
55 82 55 88 0 10 21 51 31 59 14 13 99 191 99 209 0 11 4 22 9 25 5 3 21 36
37 73 15 38 36 79 45 93 9 14 25 49 34 78 10 28 21 52 26 52 5 0 9 7 9 16 0 9
-5 12 -12 8 -7 -4 -8 -3 -4 5 4 6 12 9 17 6 5 -4 9 3 9 14 0 12 7 21 15 21 8
0 15 7 15 15 0 8 5 15 11 15 7 0 9 10 5 25 -4 15 -2 25 4 25 6 0 8 -4 5 -10
-3 -5 -2 -10 2 -10 5 0 26 27 47 59 21 33 49 72 62 88 13 15 30 40 37 56 6 15
19 29 27 32 8 3 35 35 60 71 25 37 55 82 68 101 14 21 21 41 17 54 -4 11 -2
19 4 19 6 0 11 -6 11 -12 0 -9 3 -8 9 2 6 8 7 18 4 22 -2 5 3 21 12 35 13 20
19 23 26 12 4 -7 9 -11 11 -9 2 3 8 12 13 21 6 10 34 52 63 94 48 70 72 116
37 69 -8 -10 -15 -14 -15 -9 0 6 -5 3 -11 -5 -8 -11 -12 -12 -16 -2 -6 17 -26
15 -20 -2 3 -7 -3 -20 -14 -29 -10 -9 -19 -14 -19 -12 0 3 -9 -2 -19 -12 -11
-10 -21 -31 -23 -48 -2 -21 -8 -30 -20 -29 -12 1 -17 -5 -15 -20 1 -16 -3 -20
-18 -18 -20 2 -75 -40 -75 -58 0 -6 -7 -10 -15 -10 -11 0 -15 -11 -15 -37 0
-40 -15 -36 -23 7 -3 16 -5 10 -6 -18 0 -25 -5 -41 -12 -40 -6 2 -14 -3 -16
-9 -3 -7 0 -13 7 -13 6 0 -6 -15 -27 -32 -59 -51 -63 -56 -63 -73 0 -19 -23
-45 -40 -45 -8 0 -11 -12 -8 -35 2 -19 0 -35 -4 -35 -4 0 -14 -16 -22 -35 -9
-22 -22 -35 -33 -35 -22 0 -52 -42 -34 -48 6 -2 11 -10 11 -17 0 -7 6 -16 13
-18 7 -3 6 -6 -5 -6 -9 -1 -20 4 -23 9 -9 15 -30 -4 -50 -43 -18 -37 -19 -54
-2 -60 6 -2 9 -8 5 -12 -10 -10 -38 13 -38 31 0 8 -4 14 -10 14 -5 0 -7 -6 -4
-14 3 -7 -2 -20 -10 -29 -18 -18 -21 -37 -6 -37 6 0 10 7 10 15 0 21 27 19 39
-4 9 -16 8 -18 -11 -13 -13 3 -19 1 -15 -5 8 -12 -17 -78 -32 -88 -6 -3 -7 9
-4 31 4 23 2 35 -4 31 -8 -5 -18 -32 -39 -106 -2 -7 -11 -10 -19 -7 -9 3 -15
0 -15 -10 0 -8 12 -19 26 -24 14 -6 22 -15 19 -20 -4 -6 -10 -8 -15 -5 -20 12
-30 -23 -20 -75 6 -29 8 -56 5 -58 -3 -3 -5 2 -5 11 0 10 -5 17 -11 17 -7 0
-9 9 -6 21 3 13 1 19 -6 16 -7 -2 -12 -21 -12 -42 0 -43 -13 -52 -47 -34 -19
9 -21 9 -10 -2 19 -21 15 -49 -8 -49 -11 0 -20 -4 -20 -10 0 -5 -6 -7 -12 -5
-7 3 -18 -7 -25 -21 -9 -20 -9 -26 2 -30 7 -3 13 -13 13 -22 0 -9 3 -29 7 -45
4 -17 3 -27 -3 -27 -12 0 -24 31 -20 50 6 25 -20 20 -26 -5 -5 -21 -11 -25
-28 -19 -18 5 -20 3 -15 -15 4 -15 1 -21 -13 -21 -13 0 -16 -6 -12 -25 4 -23
-4 -30 -30 -26 -8 1 -12 -15 -9 -32 1 -4 -4 -28 -10 -53 -10 -37 -14 -43 -21
-30 -5 10 -7 24 -4 31 3 8 1 17 -4 20 -6 4 -10 -4 -10 -17 l0 -23 -19 25 -19
25 -7 -28 c-5 -17 -14 -27 -26 -27 -12 0 -19 -7 -19 -20 0 -13 -5 -17 -14 -14
-10 4 -16 -3 -18 -23 -2 -20 -9 -28 -23 -28 -11 -1 -25 -4 -32 -8 -6 -4 -14
-1 -16 5 -3 7 -6 2 -6 -12 -1 -20 -3 -22 -11 -10 -9 13 -12 13 -21 -3 -6 -9
-14 -15 -20 -12 -5 4 -9 1 -9 -6 0 -8 -4 -9 -13 0 -10 7 -17 7 -24 0 -8 -8
-17 -8 -31 0 -10 6 -22 7 -26 3 -4 -3 -22 -7 -40 -9 -25 -1 -33 2 -32 14 0 9
-5 18 -11 20 -8 3 -13 -5 -13 -21 0 -14 -5 -26 -10 -26 -6 0 -10 8 -8 17 2 15
-4 18 -39 17 -24 0 -43 3 -43 8 0 5 -8 8 -17 6 -10 -1 -22 0 -28 3 -21 12 -65
19 -65 10 0 -5 6 -12 13 -15 8 -3 6 -9 -7 -20 -15 -12 -22 -13 -27 -4 -6 9
-11 9 -23 -1 -14 -12 -16 -10 -16 13 0 34 -15 33 -34 -1 -11 -20 -15 -23 -16
-10 0 18 -11 22 -24 10 -14 -14 -90 -10 -108 6 -21 18 -23 37 -5 44 6 2 9 8 5
12 -9 10 -40 -14 -33 -25 3 -5 1 -11 -5 -15 -5 -3 -10 -1 -10 4 0 6 -5 11 -11
11 -5 0 -7 -4 -4 -10 9 -14 -7 -12 -27 4 -10 7 -18 21 -18 30 0 10 -6 16 -12
13 -7 -2 -12 -12 -11 -21 0 -11 -4 -15 -12 -12 -8 3 -16 0 -19 -7 -3 -8 -9 -7
-19 6 -8 9 -19 17 -25 17 -10 0 -5 36 8 55 4 6 1 21 -6 35 l-13 24 -11 -29
c-8 -22 -13 -26 -23 -16 -6 6 -12 21 -12 34 0 15 -5 21 -17 19 -13 -2 -18 4
-18 23 0 30 -20 34 -27 5 -9 -34 -26 -17 -30 30 -6 65 -11 65 -49 3 -7 -10
-15 -15 -20 -10 -4 4 -2 13 4 19 7 7 12 21 12 32 0 19 -1 19 -20 1 -18 -17
-20 -17 -14 -2 5 13 1 17 -16 17 -17 0 -21 4 -15 17 4 10 9 27 12 38 4 19 4
19 -10 3 -8 -10 -19 -18 -26 -18 -6 0 -11 -5 -11 -12 0 -6 -8 -3 -20 7 -14 13
-17 22 -10 35 13 25 1 58 -23 62 -12 2 -23 12 -25 22 -4 20 -40 55 -56 56 -5
0 -15 -8 -23 -17 -12 -16 -13 -15 -7 9 4 20 0 31 -15 45 -12 9 -21 26 -21 36
0 13 -5 17 -15 14 -8 -4 -17 -1 -21 5 -4 7 -3 8 4 4 7 -4 12 -1 12 8 0 8 6 16
13 19 14 5 -2 40 -18 37 -5 -1 -12 6 -15 15 -5 14 -8 14 -29 -4 -28 -25 -53
-28 -45 -6 4 8 1 15 -5 15 -6 0 -15 15 -20 33 -9 30 -10 30 -16 10 -9 -28 -17
-29 -32 -3 -11 16 -10 21 3 28 12 7 13 11 5 16 -18 11 -41 -13 -41 -41 0 -22
-2 -24 -15 -13 -8 7 -15 23 -15 35 0 13 -5 25 -11 27 -9 3 -9 10 0 26 8 14 8
22 1 22 -5 0 -10 -4 -10 -10 0 -5 -4 -10 -9 -10 -5 0 -13 25 -16 55 -5 35 -12
55 -20 55 -8 0 -11 8 -8 19 3 10 0 22 -6 25 -5 4 -8 13 -4 22 3 8 -2 21 -12
28 -20 15 -11 41 11 32 12 -5 12 -1 0 28 -10 25 -11 37 -3 45 8 8 8 14 -2 23
-10 11 -15 9 -27 -7 -12 -16 -16 -17 -23 -6 -5 8 -15 11 -23 9 -9 -4 -24 8
-38 30 -18 25 -21 37 -12 40 6 2 12 11 12 19 0 11 -7 14 -25 9 -31 -8 -32 7
-4 35 17 17 19 23 8 30 -10 6 -15 3 -17 -11 -2 -14 -11 -20 -29 -20 -25 0 -25
1 -10 18 21 23 21 32 3 32 -7 0 -17 10 -21 23 -8 21 -8 21 -12 -5 -4 -28 -17
-36 -28 -18 -3 5 -18 7 -33 4 -22 -4 -30 0 -44 24 -22 37 -22 43 -3 36 8 -4
15 -1 15 6 0 7 7 10 16 6 14 -5 15 -4 5 8 -7 8 -10 20 -6 26 3 5 2 10 -4 10
-5 0 -12 -6 -14 -12 -4 -10 -6 -10 -6 0 -1 7 -5 11 -10 7 -5 -3 -12 -1 -16 5
-3 5 1 10 9 10 10 0 16 9 16 22 0 20 -1 21 -20 3 -26 -24 -33 -15 -35 42 0 27
-6 58 -13 70 -13 23 -7 53 12 53 6 0 4 5 -4 11 -13 10 -13 10 0 6 8 -3 23 -8
33 -12 27 -11 20 14 -8 27 -14 6 -25 18 -25 25 0 8 -4 11 -10 8 -5 -3 -10 -15
-10 -27 0 -18 -2 -19 -17 -7 -9 8 -19 12 -22 9 -7 -6 -12 37 -12 94 1 30 -3
37 -14 32 -8 -3 -15 -1 -15 4 0 6 5 10 10 10 17 0 11 36 -9 61 -20 24 -20 24
-35 4 -8 -11 -16 -26 -16 -32 0 -15 16 -17 25 -3 8 13 25 13 25 0 0 -15 -51
-33 -63 -21 -5 5 -10 31 -12 58 -3 63 -3 63 -16 63 -6 0 -9 -9 -6 -20 4 -15 0
-20 -14 -20 -10 0 -19 5 -19 10 0 6 5 10 11 10 6 0 9 7 6 15 -4 8 -2 17 3 20
13 8 13 45 0 45 -5 0 -10 5 -10 10 0 6 -6 17 -12 24 -11 11 -16 10 -32 -8 -14
-15 -17 -16 -13 -4 3 9 0 19 -9 22 -15 6 -20 66 -5 66 5 0 12 -11 15 -25 6
-24 26 -36 26 -15 0 6 5 9 12 8 22 -5 21 33 -1 39 -13 3 -21 14 -22 27 -3 66
0 63 -50 49 -10 -3 -18 3 -21 15 -4 16 -1 18 15 14 19 -5 19 -4 -2 17 -18 18
-19 25 -10 42 8 17 7 23 -7 33 -11 8 -15 20 -11 30 4 11 -1 28 -13 43 -13 17
-18 33 -14 49 3 13 2 24 -4 24 -5 0 -9 -7 -8 -16 0 -9 -5 -19 -12 -21 -9 -4
-11 2 -7 20 8 29 -8 43 -25 22 -17 -20 -30 -10 -30 24 0 24 -3 27 -31 25 -29
-2 -31 0 -25 27 3 16 1 29 -4 29 -5 0 -12 11 -16 25 -3 14 -12 25 -20 25 -8 0
-14 5 -14 10 0 6 5 10 11 10 6 0 9 9 6 20 -3 11 -1 20 4 20 4 0 27 18 50 39
42 38 42 40 26 64 -11 17 -13 27 -5 35 6 6 8 18 4 28 -6 16 -8 16 -25 0 -18
-17 -18 -72 0 -60 16 10 9 -23 -7 -37 -21 -17 -45 -18 -63 -1 -7 7 -20 11 -27
8 -8 -3 -22 -9 -31 -12 -17 -5 -17 -5 0 6 9 6 17 20 17 30 0 11 4 20 10 20 5
0 9 10 7 22 -2 20 2 22 31 20 28 -3 33 -1 30 15 -2 10 -10 18 -18 18 -8 0 -19
6 -23 13 -13 19 2 72 20 72 12 0 14 7 10 30 -6 25 -3 30 14 30 15 0 19 5 14
19 -5 15 -1 18 21 13 20 -4 25 -1 22 9 -7 20 -45 23 -73 5 -15 -10 -25 -29
-30 -55 -7 -42 -29 -80 -40 -69 -4 3 -2 16 5 27 7 14 7 21 0 21 -5 0 -10 -5
-10 -11 0 -5 -5 -7 -11 -3 -8 4 -8 8 0 13 17 11 1 51 -20 51 -11 0 -19 7 -19
16 0 8 4 12 10 9 6 -3 7 1 4 9 -7 18 -34 22 -34 6 0 -5 -5 -10 -11 -10 -6 0
-8 9 -4 20 4 12 1 27 -5 35 -6 8 -9 19 -6 24 9 14 -11 23 -34 16 -13 -4 -17
-11 -13 -23 6 -15 5 -15 -10 -3 -26 20 -20 38 13 45 39 7 44 46 5 46 -33 0
-32 18 1 26 23 6 25 10 19 40 -5 27 -3 34 10 34 19 0 19 14 0 30 -13 10 -15 9
-15 -9 0 -12 -6 -21 -14 -21 -9 0 -16 -12 -18 -32 -5 -52 -21 -33 -22 25 -1
37 -6 59 -18 71 -16 16 -22 14 -19 -6 0 -5 -6 -8 -14 -8 -18 0 -19 5 -4 33 14
26 37 41 64 42 31 0 31 38 1 55 -23 12 -28 11 -46 -5 -19 -17 -20 -17 -39 6
-27 32 -26 39 5 39 31 0 22 20 -9 20 -20 1 -20 2 6 16 20 11 27 22 27 44 0 16
-4 32 -10 35 -16 10 -11 53 7 64 10 5 15 13 11 16 -4 4 -18 -4 -31 -19 l-24
-26 -10 33 c-7 26 -14 31 -33 29 -19 -2 -22 0 -13 9 10 10 8 15 -5 25 -15 11
-14 14 12 40 27 28 28 28 43 9 14 -18 15 -18 9 -2 -3 10 -6 24 -6 31 0 9 -14
12 -45 10 -45 -3 -63 13 -25 23 29 8 25 23 -10 36 -33 12 -38 24 -15 33 27 11
17 32 -12 26 -25 -5 -27 -4 -14 11 7 10 9 17 4 17 -5 0 -8 18 -6 39 1 27 -3
41 -13 45 -8 3 -14 15 -14 26 0 14 -7 20 -24 20 -22 0 -23 -3 -19 -47 5 -45 3
-50 -27 -71 -22 -17 -30 -30 -27 -43 4 -16 1 -18 -19 -13 -19 5 -24 2 -25 -15
-3 -40 -4 -44 -15 -48 -6 -2 -14 3 -17 12 -4 8 -1 15 6 15 8 0 8 3 2 8 -6 4
-11 30 -11 58 0 28 -5 57 -9 64 -5 8 -8 30 -6 49 1 28 -1 32 -12 23 -8 -7 -12
-24 -9 -42 2 -16 0 -30 -5 -30 -5 0 -10 24 -10 54 0 46 2 53 16 48 15 -6 15
-4 0 18 -19 30 -33 80 -21 80 4 0 12 15 18 33 5 17 14 31 19 30 6 -1 11 6 12
15 8 89 14 152 17 177 9 78 20 264 18 301 -2 23 1 45 7 49 6 3 11 24 11 45 0
21 4 42 10 45 16 10 42 72 39 97 -1 13 3 43 10 68 26 95 29 110 23 155 -5 45
-4 47 18 40 19 -6 21 -4 15 14 -3 11 1 33 9 50 9 17 16 38 16 47 0 24 55 74
91 81 21 4 28 10 24 21 -4 10 0 13 14 9 16 -4 19 0 17 27 -4 46 -4 46 -23 39
-10 -3 -1 7 20 21 41 30 41 30 27 56 -7 13 -7 21 0 25 5 3 10 14 10 25 0 10 7
21 16 24 8 3 13 10 10 15 -3 4 1 28 8 52 8 24 14 39 15 32 1 -7 7 -10 15 -7 9
3 12 12 9 21 -4 11 -2 14 8 11 8 -3 14 -16 14 -29 0 -46 20 -24 21 23 1 48 16
78 39 78 8 0 15 -6 18 -12 3 -9 9 -7 20 7 8 11 13 22 10 25 -3 3 -8 -1 -10 -7
-7 -20 -19 -16 -37 12 -15 23 -15 26 4 45 11 11 20 25 20 30 0 6 9 10 20 10
11 0 20 5 20 10 0 12 -37 13 -44 1 -3 -5 -17 -11 -30 -13 -23 -5 -26 -2 -31
41 -3 25 -7 56 -9 69 -2 13 2 22 10 22 21 0 26 18 12 42 -7 13 -11 26 -10 30
1 4 -7 12 -18 18 -11 6 -18 15 -15 21 4 5 8 22 11 37 7 41 13 54 23 48 5 -4
12 7 16 24 4 16 11 32 16 35 17 11 9 26 -12 23 -28 -4 -34 26 -12 58 10 15 11
24 4 24 -16 0 -13 46 4 60 14 12 21 40 9 40 -3 0 -12 -7 -20 -15 -18 -18 -34
-20 -34 -4 0 6 9 13 20 16 11 3 20 10 20 15 0 5 8 7 19 3 10 -3 23 1 30 9 10
12 9 13 -8 9 -27 -7 -26 -1 5 48 22 36 23 39 5 30 -11 -6 -23 -16 -26 -21 -3
-6 -11 -10 -17 -10 -6 0 -3 9 8 21 16 17 16 22 4 30 -13 8 -12 11 3 20 9 5 17
17 17 26 0 9 7 25 17 35 9 10 14 20 11 23 -8 9 -38 -6 -38 -19 0 -6 -9 -17
-20 -24 -24 -15 -26 -9 -3 17 9 11 18 28 19 37 2 13 -4 15 -34 11 -20 -3 -29
-3 -19 -1 9 3 17 10 17 15 0 5 6 9 14 9 8 0 16 7 20 15 3 8 15 15 26 15 11 0
20 5 20 10 0 13 -13 13 -44 -1 -20 -9 -29 -9 -41 1 -18 15 -21 45 -3 34 8 -5
9 0 6 14 -4 12 -2 24 3 27 4 3 6 12 3 19 -3 8 0 17 6 21 8 5 8 11 -1 21 -10
12 -8 21 9 44 27 36 27 40 2 40 -21 0 -28 33 -11 59 7 11 11 10 20 -5 10 -18
10 -18 11 3 0 12 5 25 10 28 6 3 10 13 10 21 0 8 -4 14 -10 14 -5 0 -10 -7
-10 -15 0 -17 -16 -20 -25 -4 -4 6 3 21 14 33 13 14 19 30 15 39 -4 13 0 16
23 14 25 -2 28 1 28 28 0 19 10 40 26 58 26 27 49 35 49 17 0 -14 69 33 70 48
0 6 5 12 10 12 6 0 10 7 10 15 0 8 19 24 43 36 23 12 45 27 50 33 5 8 10 6 17
-4 8 -13 11 -12 24 5 22 28 20 37 -6 29 -21 -6 -21 -5 -9 10 8 9 21 14 28 11
8 -3 29 11 49 32 39 41 82 66 101 59 7 -3 13 -1 13 4 0 17 41 33 53 21 16 -16
22 -14 57 15 17 15 34 24 37 21 7 -8 63 24 63 36 0 4 4 6 9 2 5 -3 13 -1 16 5
4 6 16 8 27 4 17 -5 20 -3 15 10 -4 10 -3 15 2 12 5 -3 15 1 22 10 9 11 22 14
41 10 15 -3 28 -1 28 4 0 6 9 10 21 10 29 0 61 19 53 32 -4 6 -1 9 7 6 8 -3
29 2 48 9 18 8 35 12 38 9 3 -3 12 2 20 10 11 10 19 12 28 4 12 -10 19 -9 63
6 15 5 14 7 -5 15 -13 4 -23 12 -23 17 0 12 46 32 74 32 12 0 31 7 42 15 10 8
29 15 42 15 21 0 23 4 17 28 -5 24 -2 30 20 40 35 16 43 15 19 -2 -10 -8 -16
-17 -13 -21 11 -10 59 6 52 18 -4 7 2 8 18 3 63 -18 89 -19 95 -2 7 18 55 22
85 6 15 -8 19 -7 19 4 0 10 -6 13 -15 10 -8 -4 -15 -1 -15 5 0 6 -7 11 -15 11
-8 0 -15 3 -15 8 0 4 24 5 54 4 30 -2 64 1 75 8 20 10 20 13 6 33 -22 31 -18
46 5 19 11 -13 24 -20 30 -17 6 4 20 -1 31 -11 16 -15 22 -16 28 -5 6 8 14 10
22 5 16 -10 39 -14 98 -18 25 -1 47 -8 49 -14 4 -14 32 -16 32 -3 0 5 11 4 25
-2 14 -7 25 -15 25 -19 0 -5 7 -8 16 -8 11 0 7 10 -15 37 -33 40 -45 87 -16
63 8 -7 15 -21 15 -31 0 -12 7 -19 19 -19 11 0 22 -6 24 -12 4 -10 6 -10 6 0
1 17 46 -13 46 -31 0 -14 75 -29 90 -17 11 8 122 25 143 21 6 -1 12 7 12 17 0
15 8 21 34 24 42 5 71 -4 71 -23 0 -7 9 -15 20 -17 31 -6 87 -52 81 -67 -3 -8
1 -18 8 -25 10 -8 15 -7 20 5 3 9 11 13 17 10 6 -4 8 -13 5 -21 -3 -8 1 -14 8
-14 7 0 19 -7 26 -15 7 -8 21 -15 30 -15 10 0 21 -6 23 -12 3 -7 6 -3 6 9 1
22 2 22 49 -10 26 -17 49 -35 52 -38 3 -3 17 -9 33 -13 21 -5 27 -3 27 10 0
12 5 14 18 9 35 -15 62 -17 62 -5 0 7 6 6 16 -4 29 -29 54 -13 27 17 -17 19
-17 20 3 9 12 -6 24 -18 28 -27 3 -8 9 -15 14 -15 14 0 1 51 -14 57 -8 3 -14
9 -14 14 0 4 7 6 15 3 8 -4 15 -1 15 5 0 16 21 13 42 -6 11 -9 18 -11 18 -5 0
7 6 12 14 12 7 0 19 7 26 15 7 9 21 13 31 10 13 -4 21 0 26 11 6 15 7 14 15
-5 8 -23 28 -20 28 4 0 16 27 28 35 15 4 -6 1 -10 -4 -10 -6 0 -11 -6 -11 -13
0 -6 -12 -18 -27 -24 -30 -14 -57 -59 -42 -69 5 -3 14 8 20 25 6 17 15 29 20
26 5 -3 18 -1 30 6 17 8 23 8 29 -1 6 -10 12 -7 21 9 27 42 34 22 12 -37 -4
-8 0 -10 11 -6 12 5 19 0 23 -15 6 -23 23 -27 40 -10 11 11 27 -4 28 -26 0 -5
7 -10 16 -10 9 0 23 -5 30 -10 8 -6 23 -10 34 -10 19 0 38 -21 51 -57 7 -20
21 -22 58 -9 17 7 26 7 29 -2 7 -21 -16 -57 -37 -58 -21 0 -21 -1 -1 -9 14 -5
27 -2 45 14 26 22 42 25 72 12 10 -5 27 -1 42 9 27 18 35 9 14 -14 -11 -11 -9
-12 8 -7 27 8 54 -2 54 -20 0 -8 9 -14 20 -14 11 0 20 -4 20 -10 0 -5 -7 -10
-15 -10 -8 0 -15 -4 -15 -10 0 -5 6 -9 13 -7 6 1 11 -3 10 -10 -1 -6 15 -14
37 -18 28 -5 37 -11 33 -21 -3 -9 2 -14 16 -14 11 0 28 -8 38 -19 10 -10 31
-21 46 -25 16 -4 25 -11 21 -17 -3 -6 3 -13 15 -16 12 -3 21 -9 21 -13 0 -4
32 -39 70 -79 39 -39 70 -75 70 -79 0 -4 14 -20 30 -36 17 -16 30 -33 30 -38
0 -4 6 -8 14 -8 8 0 18 -10 22 -22 4 -13 24 -38 46 -57 22 -18 37 -39 34 -46
-3 -8 1 -15 8 -18 15 -6 104 -155 116 -194 4 -15 18 -50 30 -78 30 -67 60
-152 70 -195 5 -19 20 -76 34 -127 34 -123 71 -312 91 -458 23 -175 30 -451
15 -560 -7 -49 -14 -103 -16 -120 -2 -16 -5 -37 -7 -45 -4 -15 -13 -81 -22
-148 -2 -19 0 -30 6 -27 5 4 9 14 9 23 0 9 7 30 15 46 8 15 15 37 15 47 0 10
5 21 10 24 6 3 10 14 10 24 0 10 11 44 24 77 12 32 33 109 45 169 13 61 30
144 38 185 17 82 71 185 102 195 29 9 49 46 74 140 12 48 26 85 30 83 4 -2 16
12 27 30 11 17 24 32 29 32 20 0 17 -27 -6 -58 -33 -44 -23 -51 18 -13 46 40
80 164 79 289 0 12 4 22 9 22 5 0 15 16 21 36 7 21 15 32 19 25 13 -20 30 81
37 212 5 95 10 130 20 134 15 5 18 31 8 57 -9 25 -24 8 -24 -27 0 -24 -3 -28
-10 -17 -5 8 -7 29 -4 45 3 17 -2 46 -10 67 -19 43 -20 58 -6 58 6 0 10 -13
10 -29 0 -17 5 -33 10 -36 6 -3 10 -3 10 1 0 18 -43 160 -52 171 -10 12 -58
185 -58 210 0 9 -7 21 -16 28 -13 9 -14 16 -5 33 9 17 7 27 -9 54 l-21 33 6
-40 5 -40 -16 35 c-30 66 -37 85 -35 101 1 9 -5 22 -14 29 -8 7 -15 17 -15 22
0 5 -9 21 -19 34 -11 14 -29 55 -41 92 -49 152 -107 284 -154 357 -19 28 -45
71 -60 96 -14 26 -52 78 -83 115 -65 77 -284 299 -295 299 -4 0 -21 15 -37 33
-17 17 -35 32 -41 32 -5 0 -19 15 -30 33 -11 17 -20 28 -20 23 0 -6 -6 -1 -14
9 -8 11 -12 24 -8 29 3 5 -2 7 -11 3 -24 -9 -31 10 -8 22 43 23 39 26 174
-105 49 -47 91 -84 93 -82 7 7 -38 63 -75 92 -31 26 -36 35 -33 64 4 33 6 34
39 27 18 -3 48 -16 66 -28 75 -51 157 -119 198 -165 24 -26 51 -52 59 -57 8
-4 2 6 -15 24 -23 25 -27 34 -16 40 10 7 1 21 -35 58 -27 28 -60 54 -74 58
-14 4 -34 15 -45 24 -48 41 -172 95 -280 121 -27 7 -68 18 -90 26 l-40 15 25
-20 c28 -22 27 -23 -17 -40 -27 -11 -36 -10 -62 5 -17 10 -31 27 -31 37 0 10
-4 16 -10 12 -5 -3 -17 -2 -27 3 -80 39 -110 52 -120 52 -6 0 -16 14 -22 30
-5 17 -14 30 -19 30 -5 0 -13 10 -17 23 -4 13 -8 17 -11 10 -8 -19 -47 10 -80
60 -61 91 -103 121 -291 207 -124 56 -179 70 -240 59 -56 -11 -164 -8 -157 3
13 21 -128 12 -197 -13 l-57 -21 -38 25 c-61 38 -117 62 -137 59 -10 -2 -24 1
-30 6 -7 6 -37 15 -67 21 -30 6 -80 18 -110 27 -46 13 -92 14 -275 9 -218 -5
-296 -11 -325 -22 -26 -11 -123 -34 -165 -40 -51 -7 -70 -21 -54 -39 8 -10 8
-14 0 -14 -6 0 -11 5 -11 11 0 7 -10 9 -25 5 -19 -5 -28 -1 -41 19 -10 16 -26
25 -43 25 -14 1 -36 6 -49 13 -23 13 -190 14 -241 2 -40 -10 -161 6 -178 24
-9 9 -24 16 -33 17 -10 1 -28 4 -41 7 -18 5 -28 1 -36 -12z m1412 -111 c3 -5
-1 -10 -10 -10 -9 0 -13 5 -10 10 3 6 8 10 10 10 2 0 7 -4 10 -10z m115 2 c0
-4 -16 -8 -35 -9 -19 -1 -35 3 -35 8 0 5 16 9 35 9 19 0 35 -4 35 -8z m-345
-12 c-3 -5 -16 -10 -28 -10 -18 0 -19 2 -7 10 20 13 43 13 35 0z m1231 -25
c-22 -17 -56 -20 -56 -6 0 10 23 18 55 20 20 0 20 0 1 -14z m-146 -45 l-25
-20 31 0 c17 0 48 7 69 16 20 8 40 12 43 9 10 -9 -13 -40 -33 -43 -11 -3 -15
0 -11 7 12 19 -11 12 -50 -14 -41 -28 -63 -33 -44 -10 10 12 6 14 -27 13 -61
-1 -61 1 -3 32 64 34 86 38 50 10z m250 10 c11 -7 7 -10 -17 -10 -18 0 -33 5
-33 10 0 13 30 13 50 0z m-755 -20 c26 -7 24 -8 -20 -9 -27 0 -57 4 -65 9 -18
12 39 12 85 0z m814 -32 c48 -18 151 -99 151 -120 0 -9 -45 -10 -78 -1 -17 4
-20 8 -11 14 8 4 10 11 6 15 -4 4 -16 -1 -27 -11 -21 -19 -93 -23 -114 -6 -6
4 -27 11 -46 14 -19 3 -53 13 -75 22 -35 15 -37 18 -22 30 9 6 14 15 10 18 -3
4 2 9 11 13 9 3 13 11 9 17 -3 6 -1 7 6 3 6 -4 18 0 27 9 20 19 69 14 153 -17z
m-1303 -64 c-14 -22 -32 -48 -41 -59 -13 -17 -13 -14 1 15 21 44 55 93 61 87
2 -3 -7 -22 -21 -43z m1054 36 c-20 -13 -33 -13 -25 0 3 6 14 10 23 10 15 0
15 -2 2 -10z m-2834 -241 c3 -6 1 -16 -5 -22 -9 -9 -14 -8 -21 3 -5 8 -10 18
-10 23 0 11 28 8 36 -4z m1137 -9 c3 -11 1 -20 -4 -20 -5 0 -9 2 -9 4 0 2 -3
11 -6 20 -3 9 -2 16 4 16 5 0 12 -9 15 -20z m47 -91 c0 -6 -4 -7 -10 -4 -5 3
-10 11 -10 16 0 6 5 7 10 4 6 -3 10 -11 10 -16z m2768 -107 c6 -20 -15 -14
-45 13 l-28 26 34 -14 c19 -7 36 -18 39 -25z m-4148 2 c0 -8 -4 -12 -10 -9 -5
3 -10 10 -10 16 0 5 5 9 10 9 6 0 10 -7 10 -16z m-390 -4 c0 -5 -5 -10 -11
-10 -5 0 -7 5 -4 10 3 6 8 10 11 10 2 0 4 -4 4 -10z m-124 -35 c-11 -8 -25
-15 -30 -15 -6 0 -2 7 8 15 11 8 25 15 30 15 6 0 2 -7 -8 -15z m4459 -135 c3
-5 1 -10 -4 -10 -6 0 -11 5 -11 10 0 6 2 10 4 10 3 0 8 -4 11 -10z m216 -165
c22 -20 39 -42 39 -48 0 -7 -16 4 -34 24 -19 20 -48 45 -65 55 -17 10 -31 22
-31 26 0 13 52 -20 91 -57z m-5186 -116 c-3 -8 -15 -20 -26 -27 -17 -11 -20
-11 -14 0 23 39 52 59 40 27z m2950 -230 c0 -17 -45 -28 -67 -17 -25 12 -22
36 5 40 30 5 62 -6 62 -23z m2699 -45 c9 -24 2 -26 -12 -4 -7 11 -8 20 -3 20
5 0 12 -7 15 -16z m-1818 -39 c6 -20 8 -37 4 -40 -9 -5 -30 47 -30 73 0 22 12
7 26 -33z m-36 -16 c0 -5 -4 -9 -10 -9 -5 0 -10 7 -10 16 0 8 5 12 10 9 6 -3
10 -10 10 -16z m325 -58 c-3 -6 -11 -11 -17 -11 -6 0 -6 6 2 15 14 17 26 13
15 -4z m225 -126 c-7 -8 -18 -15 -24 -15 -6 0 -2 7 8 15 25 19 32 19 16 0z
m1364 -91 c3 -8 2 -12 -4 -9 -6 3 -10 10 -10 16 0 14 7 11 14 -7z m46 -87 c0
-5 -7 -4 -15 3 -8 7 -15 20 -15 29 1 13 3 13 15 -3 8 -11 15 -24 15 -29z
m-4700 -51 c0 -3 -4 -8 -10 -11 -5 -3 -10 -1 -10 4 0 6 5 11 10 11 6 0 10 -2
10 -4z m-1528 -151 c3 -14 1 -25 -3 -25 -5 0 -9 11 -9 25 0 14 2 25 4 25 2 0
6 -11 8 -25z m6355 -7 c-3 -8 -6 -5 -6 6 -1 11 2 17 5 13 3 -3 4 -12 1 -19z
m33 -93 c0 -19 3 -35 8 -35 4 0 12 -16 18 -35 6 -19 8 -35 4 -35 -21 0 -17
-48 5 -87 15 -24 25 -57 25 -80 0 -21 6 -49 13 -63 23 -43 36 -213 24 -290 -3
-14 -5 -50 -6 -80 -3 -75 -18 -37 -24 61 -3 41 -11 95 -17 121 -7 27 -10 60
-7 75 3 16 -2 64 -13 108 -38 165 -43 197 -30 205 10 6 8 23 -9 73 -20 62 -20
97 0 97 5 0 9 -16 9 -35z m-89 -418 c-8 -8 -11 2 -10 39 l1 49 10 -38 c7 -28
7 -42 -1 -50z m216 41 c-3 -8 -6 -5 -6 6 -1 11 2 17 5 13 3 -3 4 -12 1 -19z
m2 -85 c0 -25 -1 -26 -9 -8 -12 27 -12 35 0 35 6 0 10 -12 9 -27z m-132 -65
c-2 -13 -4 -3 -4 22 0 25 2 35 4 23 2 -13 2 -33 0 -45z m-106 -115 c-4 -111
-20 -146 -21 -47 0 75 8 134 19 134 3 0 4 -39 2 -87z m96 45 c-3 -8 -6 -5 -6
6 -1 11 2 17 5 13 3 -3 4 -12 1 -19z m20 -15 c-3 -10 -5 -4 -5 12 0 17 2 24 5
18 2 -7 2 -21 0 -30z m-17 -37 c0 -19 2 -40 3 -48 2 -7 2 -10 0 -5 -3 4 -8 5
-12 3 -4 -3 -8 15 -9 40 -1 24 3 44 8 44 6 0 10 -15 10 -34z m40 -98 c-1 -26
-3 -30 -10 -16 -6 9 -7 23 -4 32 9 25 14 19 14 -16z m-46 -20 c-2 -9 0 -19 6
-23 6 -3 7 -12 3 -18 -5 -7 -8 -32 -9 -57 -1 -25 -6 -64 -11 -87 -6 -24 -7
-43 -3 -43 5 0 3 -13 -3 -29 -18 -48 -24 -27 -15 56 14 126 16 155 17 203 1
33 4 41 11 30 5 -8 7 -22 4 -32z m145 -12 c-9 -8 -10 -7 -5 7 3 10 7 24 7 30
1 7 3 4 6 -7 3 -10 -1 -23 -8 -30z m-108 -69 c-8 -8 -11 -7 -11 4 0 9 3 19 7
23 4 4 9 2 11 -4 3 -7 -1 -17 -7 -23z m-5287 -22 c-6 -16 -24 -21 -24 -7 0 11
11 22 21 22 5 0 6 -7 3 -15z m5283 -17 c-3 -8 -6 -5 -6 6 -1 11 2 17 5 13 3
-3 4 -12 1 -19z m-26 -151 c-10 -9 -11 -8 -5 6 3 10 9 15 12 12 3 -3 0 -11 -7
-18z m-5261 -47 c0 -5 -4 -10 -10 -10 -5 0 -10 5 -10 10 0 6 5 10 10 10 6 0
10 -4 10 -10z m5305 -20 c-4 -12 -9 -19 -12 -17 -3 3 -2 15 2 27 4 12 9 19 12
17 3 -3 2 -15 -2 -27z m-240 -115 c-22 -60 -29 -53 -7 7 9 26 18 45 21 43 2
-3 -4 -25 -14 -50z m-5065 -64 c0 -6 -4 -13 -10 -16 -5 -3 -10 1 -10 9 0 9 5
16 10 16 6 0 10 -4 10 -9z m5113 -86 c-3 -9 -8 -14 -10 -11 -3 3 -2 9 2 15 9
16 15 13 8 -4z m-5093 -34 c0 -12 -20 -25 -27 -18 -7 7 6 27 18 27 5 0 9 -4 9
-9z m0 -104 c0 -5 -4 -5 -10 -2 -5 3 -10 14 -10 23 0 15 2 15 10 2 5 -8 10
-19 10 -23z m-36 8 c-4 -8 -10 -15 -15 -15 -4 0 -6 7 -3 15 4 8 10 15 15 15 4
0 6 -7 3 -15z m-1057 -787 c-3 -8 -6 -5 -6 6 -1 11 2 17 5 13 3 -3 4 -12 1
-19z m203 -458 c0 -5 -2 -10 -4 -10 -3 0 -8 5 -11 10 -3 6 -1 10 4 10 6 0 11
-4 11 -10z m198 -425 c-3 -3 -9 2 -12 12 -6 14 -5 15 5 6 7 -7 10 -15 7 -18z
m386 -181 c3 -8 2 -12 -4 -9 -6 3 -10 10 -10 16 0 14 7 11 14 -7z m-44 -217
c0 -5 -4 -5 -10 -2 -5 3 -10 14 -10 23 0 15 2 15 10 2 5 -8 10 -19 10 -23z
m-30 -17 c0 -5 -2 -10 -4 -10 -3 0 -8 5 -11 10 -3 6 -1 10 4 10 6 0 11 -4 11
-10z m-55 -20 c-3 -5 -11 -10 -16 -10 -6 0 -7 5 -4 10 3 6 11 10 16 10 6 0 7
-4 4 -10z m-71 -35 c-4 -8 -8 -15 -10 -15 -2 0 -4 7 -4 15 0 8 4 15 10 15 5 0
7 -7 4 -15z m56 -7 c0 -5 -9 -4 -20 2 -11 6 -20 12 -20 14 0 2 9 2 20 -1 11
-3 20 -9 20 -15z m-145 2 c3 -5 1 -10 -4 -10 -6 0 -11 5 -11 10 0 6 2 10 4 10
3 0 8 -4 11 -10z m115 -40 c9 -6 17 -5 22 3 4 6 10 8 14 4 4 -4 1 -14 -7 -21
-15 -15 -59 -5 -59 14 0 12 10 13 30 0z m190 -29 c0 -6 -4 -13 -10 -16 -5 -3
-10 1 -10 9 0 9 5 16 10 16 6 0 10 -4 10 -9z m-187 -45 c3 -8 -1 -17 -10 -20
-20 -8 -25 -3 -17 18 8 20 20 21 27 2z m142 -6 c3 -5 -1 -10 -10 -10 -9 0 -13
5 -10 10 3 6 8 10 10 10 2 0 7 -4 10 -10z m-85 -31 c0 -4 -16 -9 -35 -11 -33
-4 -43 1 -29 15 8 8 64 4 64 -4z m310 -24 c0 -8 -7 -15 -15 -15 -16 0 -20 12
-8 23 11 12 23 8 23 -8z m-60 -25 c0 -5 -2 -10 -4 -10 -3 0 -8 5 -11 10 -3 6
-1 10 4 10 6 0 11 -4 11 -10z m-290 -74 c0 -3 -4 -8 -10 -11 -5 -3 -10 -1 -10
4 0 6 5 11 10 11 6 0 10 -2 10 -4z m67 -21 c-4 -8 -11 -15 -17 -15 -6 0 -6 7
2 20 14 22 24 19 15 -5z m203 -129 c0 -3 -4 -8 -10 -11 -5 -3 -10 -1 -10 4 0
6 5 11 10 11 6 0 10 -2 10 -4z m-273 -238 c-3 -8 -6 -5 -6 6 -1 11 2 17 5 13
3 -3 4 -12 1 -19z m601 -270 c-2 -12 -10 -23 -18 -25 -11 -4 -12 -2 -2 5 7 5
10 16 6 25 -3 10 -1 17 6 17 6 0 10 -10 8 -22z m-621 -120 c-3 -7 -5 -2 -5 12
0 14 2 19 5 13 2 -7 2 -19 0 -25z m573 28 c0 -3 -4 -8 -10 -11 -5 -3 -10 -1
-10 4 0 6 5 11 10 11 6 0 10 -2 10 -4z m50 -113 c0 -20 -24 -11 -28 10 -2 12
1 15 12 11 9 -3 16 -13 16 -21z m60 -134 c-16 -28 -32 -24 -18 6 6 13 15 22
19 19 5 -3 4 -14 -1 -25z m60 -76 c0 -5 -7 -17 -15 -27 -9 -11 -11 -24 -6 -30
5 -6 12 -28 15 -50 9 -47 16 -42 21 15 3 23 9 47 14 52 5 5 8 -8 5 -34 -2 -24
-4 -51 -4 -60 -1 -17 -48 -44 -58 -34 -10 9 -9 139 0 158 9 17 28 24 28 10z
m-763 -35 c-3 -8 -6 -5 -6 6 -1 11 2 17 5 13 3 -3 4 -12 1 -19z m708 2 c3 -5
1 -10 -4 -10 -6 0 -11 5 -11 10 0 6 2 10 4 10 3 0 8 -4 11 -10z m35 -191 c0
-11 -4 -17 -10 -14 -5 3 -10 13 -10 21 0 8 5 14 10 14 6 0 10 -9 10 -21z m-79
-48 c5 9 9 10 9 2 0 -19 -17 -24 -29 -9 -7 8 -8 21 -4 32 7 16 9 14 11 -10 3
-22 6 -26 13 -15z m170 -67 c-5 -16 -10 -21 -10 -12 -1 18 10 51 15 45 2 -1
-1 -16 -5 -33z m-61 16 c0 -5 -4 -10 -10 -10 -5 0 -10 5 -10 10 0 6 5 10 10
10 6 0 10 -4 10 -10z m-143 -32 c-3 -7 -5 -2 -5 12 0 14 2 19 5 13 2 -7 2 -19
0 -25z m83 7 c0 -8 -4 -15 -10 -15 -5 0 -7 7 -4 15 4 8 8 15 10 15 2 0 4 -7 4
-15z m70 -11 c0 -8 -5 -12 -10 -9 -6 4 -8 11 -5 16 9 14 15 11 15 -7z m-182
-33 c3 -8 -1 -12 -9 -9 -7 2 -15 10 -17 17 -3 8 1 12 9 9 7 -2 15 -10 17 -17z
m275 5 c3 -8 -5 -21 -19 -30 -20 -14 -24 -14 -24 -2 0 8 -5 16 -12 18 -19 7
-2 23 25 26 14 1 27 -5 30 -12z m-816 -18 c-3 -8 -6 -5 -6 6 -1 11 2 17 5 13
3 -3 4 -12 1 -19z m730 -15 c-3 -10 -5 -4 -5 12 0 17 2 24 5 18 2 -7 2 -21 0
-30z m-67 7 c0 -5 -4 -10 -10 -10 -5 0 -10 5 -10 10 0 6 5 10 10 10 6 0 10 -4
10 -10z m2 -24 c10 5 10 4 2 -5 -12 -13 -44 -5 -44 11 0 6 6 5 15 -2 8 -6 20
-8 27 -4z m-699 -16 c-3 -12 -8 -19 -11 -16 -5 6 5 36 12 36 2 0 2 -9 -1 -20z
m836 -44 c-9 -8 -10 -7 -5 7 3 10 7 24 7 30 1 7 3 4 6 -7 3 -10 -1 -23 -8 -30z
m-160 -17 c1 8 3 12 6 9 8 -7 -5 -38 -16 -38 -5 0 -9 12 -8 28 0 24 1 25 9 7
5 -12 9 -14 9 -6z m161 -9 c0 -5 -5 -10 -11 -10 -5 0 -7 5 -4 10 3 6 8 10 11
10 2 0 4 -4 4 -10z m17 -32 c-3 -8 -6 -5 -6 6 -1 11 2 17 5 13 3 -3 4 -12 1
-19z m-127 -118 c0 -5 -4 -10 -10 -10 -5 0 -10 5 -10 10 0 6 5 10 10 10 6 0
10 -4 10 -10z m325 -10 c-3 -5 -11 -10 -16 -10 -6 0 -7 5 -4 10 3 6 11 10 16
10 6 0 7 -4 4 -10z m53 -18 c5 -31 -15 -27 -21 3 -3 16 0 24 7 22 6 -2 12 -13
14 -25z m12 -66 c0 -2 -7 -17 -15 -32 -12 -24 -15 -25 -15 -9 0 17 -2 17 -10
5 -8 -12 -10 -11 -10 6 0 11 2 23 5 25 5 5 45 9 45 5z m3465 -87 c11 -16 1
-19 -13 -3 -7 8 -8 14 -3 14 5 0 13 -5 16 -11z m-28 -31 c-3 -8 -6 -5 -6 6 -1
11 2 17 5 13 3 -3 4 -12 1 -19z m-102 -78 c3 -5 1 -10 -4 -10 -6 0 -11 5 -11
10 0 6 2 10 4 10 3 0 8 -4 11 -10z m-4400 -49 c3 -5 1 -12 -5 -16 -5 -3 -10 1
-10 9 0 18 6 21 15 7z m4344 -78 c0 -25 -1 -25 -8 -8 -5 11 -7 23 -4 28 8 14
13 7 12 -20z m-4258 -66 c-13 -13 -15 11 -4 40 7 16 8 15 11 -6 2 -13 -1 -28
-7 -34z m549 -74 c0 -11 -3 -14 -8 -7 -4 6 -14 14 -22 17 -10 4 -8 6 8 6 15 1
22 -5 22 -16z m-502 -28 c-3 -3 -9 2 -12 12 -6 14 -5 15 5 6 7 -7 10 -15 7
-18z m1291 -105 c-1 -17 -3 -19 -6 -7 -2 9 -11 17 -19 17 -8 0 -14 9 -14 20 0
18 2 19 20 8 12 -8 20 -23 19 -38z m-1259 6 c0 -8 -4 -18 -10 -21 -5 -3 -10 3
-10 14 0 12 5 21 10 21 6 0 10 -6 10 -14z m10 -36 c0 -5 -5 -10 -11 -10 -5 0
-7 5 -4 10 3 6 8 10 11 10 2 0 4 -4 4 -10z m40 6 c0 -2 -7 -7 -16 -10 -8 -3
-12 -2 -9 4 6 10 25 14 25 6z m1200 -10 c0 -3 -4 -8 -10 -11 -5 -3 -10 -1 -10
4 0 6 5 11 10 11 6 0 10 -2 10 -4z m-1160 -70 c0 -3 -4 -8 -10 -11 -5 -3 -10
-1 -10 4 0 6 5 11 10 11 6 0 10 -2 10 -4z m28 -49 c10 4 13 2 8 -5 -8 -14 -45
-15 -65 -3 -7 5 -10 14 -7 20 5 8 13 7 28 -3 11 -8 27 -12 36 -9z m-9 -61
c-11 -11 -68 -15 -74 -6 -4 6 10 10 36 10 23 0 40 -2 38 -4z m85 -51 c3 -8 1
-15 -4 -15 -6 0 -10 7 -10 15 0 8 2 15 4 15 2 0 6 -7 10 -15z m400 -61 c3 -8
2 -12 -4 -9 -6 3 -10 10 -10 16 0 14 7 11 14 -7z m3138 -96 c-8 -8 -9 -4 -5
13 4 13 8 18 11 10 2 -7 -1 -18 -6 -23z m-2158 -30 c-3 -10 -1 -18 5 -18 12 0
15 -29 4 -31 -45 -8 -53 -5 -53 17 0 12 -4 26 -10 29 -19 12 -10 20 25 21 30
0 34 -2 29 -18z m-1197 -190 c-3 -8 -6 -5 -6 6 -1 11 2 17 5 13 3 -3 4 -12 1
-19z m108 -9 c-29 -11 -45 -10 -45 2 0 6 7 8 16 5 12 -4 15 -2 10 9 -5 13 -2
14 17 4 21 -12 21 -12 2 -20z m1312 -11 c-3 -8 -6 -5 -6 6 -1 11 2 17 5 13 3
-3 4 -12 1 -19z m-1486 -19 c9 -18 9 -19 -10 -7 -12 7 -21 19 -21 26 0 17 17
7 31 -19z m276 15 c-3 -3 -12 -4 -19 -1 -8 3 -5 6 6 6 11 1 17 -2 13 -5z
m-120 -36 c-3 -8 -6 -5 -6 6 -1 11 2 17 5 13 3 -3 4 -12 1 -19z m-62 -8 c-3
-5 -11 -10 -16 -10 -6 0 -7 5 -4 10 3 6 11 10 16 10 6 0 7 -4 4 -10z m3155
-15 c0 -8 -4 -15 -10 -15 -5 0 -10 7 -10 15 0 8 5 15 10 15 6 0 10 -7 10 -15z
m-1713 -11 c-3 -3 -12 -4 -19 -1 -8 3 -5 6 6 6 11 1 17 -2 13 -5z m-1418 -51
c-7 -7 -14 -11 -18 -8 -3 3 1 10 9 15 10 7 11 10 3 10 -7 0 -13 5 -13 11 0 8
5 8 15 -1 12 -10 13 -16 4 -27z m61 21 c0 -2 -7 -4 -15 -4 -8 0 -15 4 -15 10
0 5 7 7 15 4 8 -4 15 -8 15 -10z m1369 -5 c-16 -10 -23 -4 -14 10 3 6 11 8 17
5 6 -4 5 -9 -3 -15z m-1339 -43 c0 -3 -4 -8 -10 -11 -5 -3 -10 -1 -10 4 0 6 5
11 10 11 6 0 10 -2 10 -4z m-40 -14 c0 -4 -9 -13 -19 -19 -16 -10 -20 -9 -25
3 -3 8 -2 12 3 9 5 -3 12 -1 16 5 7 12 25 14 25 2z m3010 -33 c0 -5 -4 -9 -10
-9 -5 0 -10 7 -10 16 0 8 5 12 10 9 6 -3 10 -10 10 -16z m-30 1 c0 -5 -4 -10
-10 -10 -5 0 -10 5 -10 10 0 6 5 10 10 10 6 0 10 -4 10 -10z m-2970 -14 c0 -3
-4 -8 -10 -11 -5 -3 -10 -1 -10 4 0 6 5 11 10 11 6 0 10 -2 10 -4z m1570 -16
c0 -5 -4 -10 -10 -10 -5 0 -10 5 -10 10 0 6 5 10 10 10 6 0 10 -4 10 -10z
m-1395 -18 c-3 -3 -11 0 -18 7 -9 10 -8 11 6 5 10 -3 15 -9 12 -12z m10 -22
c-3 -5 -14 -10 -23 -10 -15 0 -15 2 -2 10 20 13 33 13 25 0z m280 -10 c3 -5
-1 -10 -10 -10 -9 0 -13 5 -10 10 3 6 8 10 10 10 2 0 7 -4 10 -10z m55 -30 c0
-5 -2 -10 -4 -10 -3 0 -8 5 -11 10 -3 6 -1 10 4 10 6 0 11 -4 11 -10z m2260
-102 c0 -16 -3 -19 -11 -11 -6 6 -8 16 -5 22 11 17 16 13 16 -11z m-2601 5
c-3 -21 3 -31 23 -36 12 -4 19 -9 16 -13 -5 -5 -44 12 -78 34 -5 4 21 22 33
22 4 0 6 -3 6 -7z m111 -38 c0 -8 7 -15 15 -15 8 0 15 -7 15 -15 0 -18 -1 -18
-32 -2 -14 7 -22 19 -20 30 4 21 22 23 22 2z m2514 0 c3 -8 1 -15 -4 -15 -6 0
-10 7 -10 15 0 8 2 15 4 15 2 0 6 -7 10 -15z m-2547 -1 c-3 -3 -12 -4 -19 -1
-8 3 -5 6 6 6 11 1 17 -2 13 -5z m365 -39 c-2 -14 -7 -25 -11 -25 -13 0 -31
24 -31 40 0 12 2 12 9 2 7 -11 9 -10 15 3 9 25 24 9 18 -20z m-242 -15 c-8 -5
-22 -9 -30 -9 -10 0 -8 3 5 9 27 12 43 12 25 0z m2157 -1 c8 -8 17 -7 34 1 20
10 22 10 12 0 -7 -8 -27 -14 -45 -15 -18 -1 -37 -4 -43 -6 -5 -2 -10 1 -10 6
0 6 3 9 8 8 4 -2 7 2 7 7 0 13 23 13 37 -1z m113 1 c0 -5 -5 -10 -11 -10 -5 0
-7 5 -4 10 3 6 8 10 11 10 2 0 4 -4 4 -10z m-1805 -20 c3 -5 -3 -10 -14 -10
-11 0 -23 5 -26 10 -3 6 3 10 14 10 11 0 23 -4 26 -10z m-408 -16 c-3 -3 -12
-4 -19 -1 -8 3 -5 6 6 6 11 1 17 -2 13 -5z m8 -24 c3 -5 2 -10 -4 -10 -5 0
-13 5 -16 10 -3 6 -2 10 4 10 5 0 13 -4 16 -10z m-35 -14 c0 -8 -4 -18 -10
-21 -5 -3 -10 -4 -10 -1 0 2 -3 11 -6 20 -4 11 -1 16 10 16 9 0 16 -6 16 -14z
m545 -26 c3 -5 1 -10 -4 -10 -6 0 -11 5 -11 10 0 6 2 10 4 10 3 0 8 -4 11 -10z
m-515 -15 c0 -2 -7 -5 -15 -9 -9 -3 -15 0 -15 9 0 9 6 12 15 9 8 -4 15 -7 15
-9z m30 5 c0 -5 -2 -10 -4 -10 -3 0 -8 5 -11 10 -3 6 -1 10 4 10 6 0 11 -4 11
-10z m320 -4 c0 -3 -4 -8 -10 -11 -5 -3 -10 -1 -10 4 0 6 5 11 10 11 6 0 10
-2 10 -4z m230 -21 c10 -12 10 -15 -3 -15 -8 0 -17 7 -21 15 -3 8 -2 15 3 15
5 0 14 -7 21 -15z m-563 -15 c-1 -11 -2 -20 -3 -20 -1 0 -10 3 -18 6 -13 5
-14 9 -5 20 16 20 28 17 26 -6z m53 10 c0 -5 -4 -10 -10 -10 -5 0 -10 5 -10
10 0 6 5 10 10 10 6 0 10 -4 10 -10z m1630 0 c0 -5 -2 -10 -4 -10 -3 0 -8 5
-11 10 -3 6 -1 10 4 10 6 0 11 -4 11 -10z m62 -22 c-7 -7 -12 -8 -12 -2 0 14
12 26 19 19 2 -3 -1 -11 -7 -17z m-1618 -12 c-3 -8 -13 -17 -22 -21 -13 -5
-13 -2 3 15 21 24 26 25 19 6z m1520 -7 c-8 -14 -24 -10 -24 6 0 9 6 12 15 9
8 -4 12 -10 9 -15z m-1324 -11 c0 -13 -32 -6 -37 9 -3 7 3 9 16 6 12 -3 21
-10 21 -15z m1123 5 c-7 -3 -13 -12 -14 -21 0 -11 -2 -13 -6 -4 -6 15 17 46
26 36 3 -4 0 -9 -6 -11z m-1262 -10 c8 -9 15 -34 15 -55 2 -32 -1 -37 -12 -27
-8 6 -13 17 -13 23 1 6 -3 24 -9 39 -7 16 -12 30 -12 33 0 10 19 3 31 -13z
m296 11 c-3 -3 -12 -4 -19 -1 -8 3 -5 6 6 6 11 1 17 -2 13 -5z m1379 -19 c-3
-9 -10 -13 -16 -10 -6 4 -5 11 3 20 15 16 22 11 13 -10z m-253 -50 c-7 -11
-13 -27 -13 -35 0 -9 -6 -24 -13 -34 -13 -17 -14 -17 -28 0 -7 10 -9 15 -2 11
19 -12 24 8 14 52 -8 39 0 58 13 26 10 -26 26 -16 27 18 1 30 1 30 8 7 5 -16
3 -32 -6 -45z m-1475 20 c-3 -3 -9 2 -12 12 -6 14 -5 15 5 6 7 -7 10 -15 7
-18z m1162 21 c0 -3 -4 -8 -10 -11 -5 -3 -10 -1 -10 4 0 6 5 11 10 11 6 0 10
-2 10 -4z m-45 -25 c-8 -14 -25 -14 -25 0 0 5 5 7 10 4 6 -3 10 -1 10 6 0 7 3
10 6 6 3 -3 3 -10 -1 -16z m110 9 c11 -5 15 -9 8 -9 -6 -1 -18 -3 -26 -6 -8
-4 -14 0 -14 10 0 17 3 17 32 5z m312 -12 c-3 -8 -6 -5 -6 6 -1 11 2 17 5 13
3 -3 4 -12 1 -19z m-1282 -14 c-11 -12 -19 -13 -32 -4 -17 11 -17 11 0 6 11
-3 20 0 23 9 4 8 10 12 15 9 5 -3 2 -12 -6 -20z m1043 6 c3 -9 -1 -11 -12 -7
-9 4 -16 2 -16 -3 0 -6 -7 -10 -15 -10 -20 0 -19 10 3 26 20 15 34 13 40 -6z
m-1353 -8 c-3 -3 -11 0 -18 7 -9 10 -8 11 6 5 10 -3 15 -9 12 -12z m1042 12
c-3 -3 -12 -4 -19 -1 -8 3 -5 6 6 6 11 1 17 -2 13 -5z m-407 -14 c0 -5 -5 -10
-11 -10 -5 0 -7 5 -4 10 3 6 8 10 11 10 2 0 4 -4 4 -10z m800 -50 c-14 -27
-16 -26 -16 14 0 28 2 31 13 20 11 -10 11 -18 3 -34z m-1224 15 c0 -14 -4 -25
-8 -25 -10 0 -10 13 -2 34 9 23 12 20 10 -9z m179 15 c3 -5 -1 -10 -9 -10 -9
0 -16 5 -16 10 0 6 4 10 9 10 6 0 13 -4 16 -10z m90 0 c3 -5 1 -10 -4 -10 -6
0 -11 5 -11 10 0 6 2 10 4 10 3 0 8 -4 11 -10z m995 0 c0 -5 -5 -10 -11 -10
-5 0 -7 5 -4 10 3 6 8 10 11 10 2 0 4 -4 4 -10z m-759 -17 c29 -17 38 -33 19
-33 -5 0 -10 5 -10 10 0 13 -36 13 -60 0 -16 -8 -18 -8 -14 5 4 8 1 15 -5 15
-6 0 -11 5 -11 10 0 16 49 12 81 -7z m-432 -26 c0 -8 -2 -9 -5 -1 -7 16 -44 5
-44 -12 0 -8 -4 -14 -10 -14 -14 0 -13 7 6 35 13 20 20 23 35 14 10 -5 19 -15
18 -22z m90 24 c8 -5 9 -11 3 -15 -5 -3 -15 1 -22 9 -14 16 -3 20 19 6z m182
-22 c16 -17 33 -28 38 -24 6 3 4 -7 -4 -22 -8 -15 -13 -28 -12 -30 6 -6 47 10
47 18 0 5 5 9 10 9 21 0 9 -20 -15 -26 -14 -3 -25 -10 -25 -15 0 -5 -11 -7
-24 -3 -13 3 -27 1 -30 -5 -9 -14 -34 -3 -47 21 -8 15 -8 19 0 13 7 -4 23 0
36 9 21 14 22 18 12 41 -7 13 -15 25 -19 25 -5 0 -8 5 -8 10 0 17 11 11 41
-21z m567 11 c-13 -20 -28 -27 -28 -12 0 10 22 32 32 32 5 0 3 -9 -4 -20z m28
-5 c-9 -9 -16 -13 -16 -8 0 12 22 34 28 28 2 -2 -3 -11 -12 -20z m-1036 -11
c0 -8 -4 -12 -10 -9 -5 3 -10 10 -10 16 0 5 5 9 10 9 6 0 10 -7 10 -16z m94
-51 c9 -27 26 -30 33 -5 2 10 14 22 26 27 18 8 24 6 35 -14 12 -23 16 -51 8
-51 -19 0 -36 16 -36 33 0 21 0 21 -22 -2 -16 -16 -19 -25 -10 -28 14 -6 16
-33 2 -33 -6 0 -15 12 -20 26 -9 23 -15 26 -40 20 -22 -4 -30 -2 -30 9 0 8 -9
15 -20 15 -38 0 -20 46 20 52 26 3 42 -11 54 -49z m639 20 c-7 -2 -19 -2 -25
0 -7 3 -2 5 12 5 14 0 19 -2 13 -5z m182 -31 c-6 -6 -35 18 -35 29 0 5 9 1 20
-8 11 -9 17 -19 15 -21z m275 23 c-10 -13 -9 -15 10 -15 13 0 21 -3 17 -6 -3
-3 -20 -3 -38 1 -31 7 -32 8 -14 21 25 19 41 18 25 -1z m-850 -15 c0 -5 -2
-10 -4 -10 -3 0 -8 5 -11 10 -3 6 -1 10 4 10 6 0 11 -4 11 -10z m750 0 c0 -5
-4 -10 -10 -10 -5 0 -10 5 -10 10 0 6 5 10 10 10 6 0 10 -4 10 -10z"/>
<path d="M6231 2694 c-12 -14 -11 -16 4 -12 10 1 20 9 23 16 5 17 -10 15 -27
-4z"/>
<path d="M5810 2726 c0 -2 7 -6 15 -10 8 -3 15 -1 15 4 0 6 -7 10 -15 10 -8 0
-15 -2 -15 -4z"/>
<path d="M8870 12340 c8 -5 20 -10 25 -10 6 0 3 5 -5 10 -8 5 -19 10 -25 10
-5 0 -3 -5 5 -10z"/>
<path d="M5153 12173 c-29 -10 -10 -23 33 -23 38 0 44 2 35 14 -11 13 -44 17
-68 9z"/>
<path d="M5255 12161 c-3 -5 -1 -12 5 -16 12 -7 30 2 30 16 0 12 -27 12 -35 0z"/>
<path d="M5085 12150 c4 -6 11 -8 16 -5 14 9 11 15 -7 15 -8 0 -12 -5 -9 -10z"/>
<path d="M5190 12090 c0 -5 5 -10 10 -10 6 0 10 5 10 10 0 6 -4 10 -10 10 -5
0 -10 -4 -10 -10z"/>
<path d="M9475 11990 c3 -5 11 -10 16 -10 6 0 7 5 4 10 -3 6 -11 10 -16 10 -6
0 -7 -4 -4 -10z"/>
<path d="M9565 11900 c3 -5 8 -10 11 -10 2 0 4 5 4 10 0 6 -5 10 -11 10 -5 0
-7 -4 -4 -10z"/>
<path d="M9800 11880 c6 -11 16 -20 22 -20 6 0 3 9 -7 20 -10 11 -20 20 -22
20 -2 0 1 -9 7 -20z"/>
<path d="M9845 11840 c3 -5 11 -10 16 -10 6 0 7 5 4 10 -3 6 -11 10 -16 10 -6
0 -7 -4 -4 -10z"/>
<path d="M9860 11811 c0 -6 4 -12 8 -15 5 -3 9 1 9 9 0 8 -4 15 -9 15 -4 0 -8
-4 -8 -9z"/>
<path d="M9620 11771 c0 -5 5 -13 10 -16 6 -3 10 -2 10 4 0 5 -4 13 -10 16 -5
3 -10 2 -10 -4z"/>
<path d="M9920 11762 c0 -7 20 -34 45 -60 24 -26 44 -42 44 -37 0 15 -89 111
-89 97z"/>
<path d="M9660 11720 c0 -5 5 -10 10 -10 6 0 10 5 10 10 0 6 -4 10 -10 10 -5
0 -10 -4 -10 -10z"/>
<path d="M9930 11660 c0 -5 5 -10 11 -10 5 0 7 5 4 10 -3 6 -8 10 -11 10 -2 0
-4 -4 -4 -10z"/>
<path d="M10045 11617 c15 -21 30 -35 33 -32 3 3 -9 20 -27 38 l-34 32 28 -38z"/>
<path d="M10010 11572 c0 -4 11 -23 23 -42 13 -19 32 -52 42 -72 15 -32 35
-51 35 -33 0 16 -86 155 -96 155 -2 0 -4 -3 -4 -8z"/>
<path d="M9886 11437 c3 -10 9 -15 12 -12 3 3 0 11 -7 18 -10 9 -11 8 -5 -6z"/>
<path d="M9910 11393 c0 -5 7 -18 15 -29 13 -18 14 -18 8 4 -5 22 -23 41 -23
25z"/>
<path d="M7330 11320 c0 -5 5 -10 10 -10 6 0 10 5 10 10 0 6 -4 10 -10 10 -5
0 -10 -4 -10 -10z"/>
<path d="M9976 11267 c3 -10 9 -15 12 -12 3 3 0 11 -7 18 -10 9 -11 8 -5 -6z"/>
<path d="M10000 11221 c0 -7 13 -41 29 -75 15 -33 36 -87 46 -119 19 -61 35
-82 35 -48 0 11 -4 23 -10 26 -5 3 -10 17 -10 31 0 13 -14 52 -30 87 -41 84
-60 115 -60 98z"/>
<path d="M8640 10950 c0 -5 5 -10 11 -10 5 0 7 5 4 10 -3 6 -8 10 -11 10 -2 0
-4 -4 -4 -10z"/>
<path d="M10120 10933 c0 -10 7 -31 15 -47 8 -15 15 -36 15 -45 0 -10 7 -26
16 -37 14 -18 15 -17 9 18 -6 37 -42 128 -50 128 -3 0 -5 -8 -5 -17z"/>
<path d="M5520 10910 c0 -5 5 -10 10 -10 6 0 10 5 10 10 0 6 -4 10 -10 10 -5
0 -10 -4 -10 -10z"/>
<path d="M10411 10874 c0 -11 3 -14 6 -6 3 7 2 16 -1 19 -3 4 -6 -2 -5 -13z"/>
<path d="M10447 10690 c3 -30 7 -57 9 -59 9 -10 3 85 -6 99 -6 10 -7 -3 -3
-40z"/>
<path d="M10463 10560 c0 -36 2 -50 4 -32 2 17 2 47 0 65 -2 17 -4 3 -4 -33z"/>
<path d="M10441 10374 c0 -11 3 -14 6 -6 3 7 2 16 -1 19 -3 4 -6 -2 -5 -13z"/>
<path d="M10375 10027 c2 -55 7 -103 12 -108 10 -10 5 101 -7 166 -5 27 -6 7
-5 -58z"/>
<path d="M4980 9940 c0 -5 5 -10 11 -10 5 0 7 5 4 10 -3 6 -8 10 -11 10 -2 0
-4 -4 -4 -10z"/>
<path d="M10347 9923 c-4 -3 -7 -13 -7 -22 1 -13 3 -13 11 2 11 19 8 33 -4 20z"/>
<path d="M10297 9723 c-3 -16 -9 -37 -13 -48 -5 -14 -4 -17 4 -10 11 10 28 85
19 85 -2 0 -7 -12 -10 -27z"/>
<path d="M10263 9503 c-3 -10 -8 -22 -10 -28 -3 -5 3 -1 11 9 16 20 21 36 11
36 -3 0 -8 -8 -12 -17z"/>
<path d="M4950 9439 c0 -5 5 -7 10 -4 6 3 10 8 10 11 0 2 -4 4 -10 4 -5 0 -10
-5 -10 -11z"/>
<path d="M4980 9376 c0 -14 5 -28 11 -31 16 -11 23 3 10 19 -7 8 -10 20 -6 26
3 5 1 10 -4 10 -6 0 -11 -11 -11 -24z"/>
<path d="M5080 9309 c0 -5 5 -7 10 -4 6 3 10 8 10 11 0 2 -4 4 -10 4 -5 0 -10
-5 -10 -11z"/>
<path d="M5375 9120 c-3 -5 3 -10 14 -10 12 0 21 -5 21 -12 0 -6 2 -9 5 -6 3
3 3 13 -1 22 -7 18 -29 22 -39 6z"/>
<path d="M5084 9082 c-6 -4 -13 -15 -17 -24 -5 -16 -9 -16 -34 -3 -33 17 -63
19 -63 5 0 -6 11 -15 24 -20 13 -5 27 -15 30 -22 5 -10 7 -10 12 0 9 18 22 15
29 -9 4 -13 12 -18 22 -15 9 4 17 -1 20 -14 9 -35 23 -22 23 23 0 45 -27 92
-46 79z"/>
<path d="M5360 9071 c0 -6 5 -13 10 -16 6 -3 10 1 10 9 0 9 -4 16 -10 16 -5 0
-10 -4 -10 -9z"/>
<path d="M9945 9059 c-4 -6 -5 -12 -2 -15 2 -3 7 2 10 11 7 17 1 20 -8 4z"/>
<path d="M5378 9003 c6 -2 18 -2 25 0 6 3 1 5 -13 5 -14 0 -19 -2 -12 -5z"/>
<path d="M5930 8953 c-8 -2 -25 -9 -37 -15 -16 -8 -26 -8 -36 1 -14 11 -26 4
-123 -77 -11 -9 -45 -24 -75 -31 -58 -15 -98 -39 -99 -58 0 -15 -20 -18 -20
-3 0 20 -20 9 -35 -20 -9 -16 -22 -30 -30 -30 -8 0 -12 -6 -9 -14 4 -10 -6
-15 -33 -18 -51 -7 -63 -1 -63 29 0 33 87 102 111 87 5 -3 9 1 9 9 0 16 -34
13 -56 -5 -6 -4 -20 -7 -30 -6 -26 3 -102 -33 -108 -52 -8 -22 -29 -53 -45
-66 -8 -6 -11 -16 -6 -23 5 -9 12 -7 26 8 10 11 19 25 19 31 0 5 7 10 15 10 7
0 18 7 23 16 6 10 12 13 16 6 3 -6 -5 -24 -19 -40 -14 -16 -25 -39 -25 -51 0
-11 -13 -36 -30 -54 -16 -19 -30 -43 -30 -53 0 -16 4 -15 26 9 23 26 53 29 37
4 -3 -6 10 2 30 17 20 16 37 24 37 19 0 -12 -87 -84 -130 -107 -19 -10 -40
-26 -47 -35 -6 -9 -15 -13 -19 -9 -7 8 -44 -34 -44 -50 0 -5 8 -16 18 -26 18
-15 21 -15 45 5 29 22 37 55 12 45 -8 -3 -15 -1 -15 4 0 6 7 10 15 10 8 0 15
4 15 8 0 11 80 55 87 48 8 -8 -25 -56 -38 -56 -6 0 -9 7 -5 15 7 19 -1 19 -20
1 -19 -20 -18 -25 7 -35 21 -7 20 -9 -16 -45 -29 -30 -42 -36 -63 -32 -15 3
-38 -1 -52 -9 -24 -14 -22 -14 37 -13 34 1 65 -1 69 -4 8 -8 -63 -77 -91 -89
-11 -4 19 -6 70 -2 50 3 99 11 110 17 22 13 65 10 65 -4 0 -5 -26 -14 -57 -20
-82 -16 -93 -21 -63 -30 37 -11 137 -1 205 21 132 43 146 50 140 70 -7 23 5
24 58 5 20 -8 40 -10 43 -5 3 5 -4 9 -15 9 -12 0 -21 5 -21 10 0 6 10 10 21
10 26 0 139 49 139 61 0 4 8 10 18 12 9 3 -2 5 -24 6 -28 1 -44 6 -48 17 -9
24 0 32 31 26 69 -12 163 -2 163 18 0 6 -20 10 -44 10 -43 0 -44 0 -33 25 8
16 20 25 35 25 12 0 21 5 20 13 -2 7 11 13 35 15 20 2 37 -1 37 -7 0 -16 37
-23 58 -10 14 9 31 8 78 -3 38 -10 67 -12 82 -7 13 5 37 9 53 9 17 0 28 3 26
8 -21 33 94 26 198 -14 28 -10 52 -22 55 -25 3 -4 27 -17 53 -29 48 -22 77
-52 77 -78 0 -9 -6 -12 -15 -8 -9 3 -30 -3 -48 -14 -19 -12 -50 -20 -75 -20
-23 0 -59 -7 -79 -15 -20 -9 -45 -13 -55 -9 -10 3 -38 -2 -63 -11 -24 -10 -52
-15 -61 -11 -8 3 -30 0 -47 -8 -18 -7 -70 -23 -117 -35 -47 -12 -103 -26 -125
-32 -22 -6 -48 -15 -58 -20 -10 -5 -21 -7 -26 -5 -4 3 -29 -6 -56 -19 -27 -14
-55 -25 -62 -25 -7 0 -16 -7 -19 -15 -4 -8 -12 -15 -19 -15 -7 0 -15 -4 -17
-8 -5 -13 -167 -92 -188 -92 -22 0 -49 -40 -28 -40 8 0 7 -4 -3 -10 -9 -5 -62
-13 -118 -16 -124 -9 -130 -27 -9 -28 81 -1 119 -10 87 -20 -39 -12 -40 -16
-6 -11 32 5 176 5 423 1 42 -1 60 3 57 10 -2 6 3 14 11 17 10 4 13 13 9 23 -5
14 -2 16 15 12 17 -5 22 -2 22 14 0 10 4 17 9 13 6 -3 19 4 30 16 25 27 41 17
41 -26 l0 -34 42 19 c23 10 48 27 55 36 17 23 28 11 13 -15 -12 -23 -5 -45 11
-36 5 4 9 14 9 24 0 10 7 24 15 31 9 7 15 8 15 2 0 -5 8 -8 18 -5 13 3 22 -4
30 -22 14 -31 6 -78 -9 -54 -7 11 -9 9 -9 -7 0 -24 20 -36 39 -24 15 9 4 100
-12 100 -6 0 -8 2 -5 5 9 9 149 -23 167 -39 10 -9 25 -16 34 -16 9 0 19 -5 22
-10 5 -8 11 -8 19 -1 27 22 232 -15 291 -53 29 -19 64 -26 96 -19 24 4 29 11
29 33 0 21 4 28 18 26 9 -2 18 -12 20 -24 2 -11 9 -26 17 -32 11 -9 16 -7 25
9 6 12 17 21 25 21 7 0 16 6 19 13 3 8 10 6 21 -8 9 -11 21 -19 27 -17 5 1 15
-1 22 -6 41 -33 85 -10 137 71 13 21 35 40 49 44 34 8 57 29 65 61 4 18 9 22
14 13 14 -22 23 5 15 45 -4 24 -3 35 3 31 6 -4 19 0 29 8 21 15 23 13 -32 30
-8 3 -13 9 -10 14 3 5 -7 11 -22 14 -23 5 -31 14 -42 49 -8 24 -19 47 -25 51
-5 4 2 5 17 1 24 -5 29 -2 41 28 8 18 31 51 51 72 48 52 38 57 -18 11 -26 -21
-46 -32 -46 -26 0 17 -13 13 -43 -14 -15 -14 -27 -21 -27 -16 0 6 7 14 16 19
16 9 22 60 10 81 -4 6 -9 36 -11 67 -2 30 -9 61 -15 69 -7 8 -9 26 -6 39 3 14
1 28 -5 31 -6 4 -14 17 -19 29 -8 20 -9 20 -10 1 -1 -15 -6 -10 -20 18 -10 21
-16 45 -13 53 4 12 1 12 -22 0 -16 -8 -32 -21 -36 -28 -6 -10 -19 -1 -49 32
-22 24 -40 50 -40 57 0 7 -4 13 -10 13 -15 0 -12 -35 5 -77 8 -19 15 -42 15
-49 0 -22 -20 -16 -29 9 -12 29 -81 93 -98 89 -7 -2 -13 1 -13 5 0 8 -52 43
-64 43 -3 0 -3 -6 0 -14 11 -28 -13 -24 -79 14 -36 21 -69 35 -72 29 -4 -5
-18 -6 -31 -3 -20 5 -25 3 -22 -9 3 -16 -6 -19 -30 -9 -11 4 -11 6 -1 13 7 4
-60 5 -149 3 -136 -4 -162 -3 -162 9 0 11 -17 16 -61 19 -34 2 -64 10 -68 17
-5 7 -28 14 -52 16 -24 2 -65 6 -91 10 -32 5 -53 4 -62 -4 -10 -8 -16 -9 -21
-1 -3 5 -15 10 -26 10 -10 0 -19 5 -19 10 0 10 -15 12 -40 3z m-120 -78 c0 -8
-62 -37 -67 -31 -4 3 9 12 28 20 39 18 39 17 39 11z m548 -24 c3 -10 0 -11 -9
-5 -8 5 -22 7 -33 5 -11 -2 -16 2 -11 9 9 15 47 9 53 -9z m-957 -209 c-11 -20
-40 -37 -49 -28 -2 3 9 16 24 30 33 27 41 27 25 -2z m1878 -2 c6 0 11 -11 11
-25 0 -36 -25 -22 -38 23 -9 31 -9 34 2 20 7 -10 18 -18 25 -18z m-161 -55
c-3 -3 -9 2 -12 12 -6 14 -5 15 5 6 7 -7 10 -15 7 -18z m-1748 -48 c0 -2 -11
-14 -25 -27 -21 -20 -25 -21 -25 -6 0 9 4 15 9 12 5 -3 14 1 21 9 12 14 20 19
20 12z m1885 -57 c3 -5 1 -10 -4 -10 -6 0 -11 5 -11 10 0 6 2 10 4 10 3 0 8
-4 11 -10z m45 -20 c0 -5 -5 -10 -11 -10 -5 0 -7 5 -4 10 3 6 8 10 11 10 2 0
4 -4 4 -10z m-1920 -10 c0 -6 -8 -13 -17 -17 -10 -3 -26 -13 -36 -21 -9 -8
-20 -12 -25 -8 -8 9 47 56 66 56 6 0 12 -5 12 -10z m1925 -68 c-3 -3 -11 1
-20 8 -13 11 -14 10 -9 -4 3 -9 1 -16 -5 -16 -18 0 -13 42 7 56 15 11 18 9 24
-14 4 -14 5 -28 3 -30z m-1980 -2 c-3 -5 -11 -10 -16 -10 -6 0 -7 5 -4 10 3 6
11 10 16 10 6 0 7 -4 4 -10z m442 -26 c-3 -3 -12 -4 -19 -1 -8 3 -5 6 6 6 11
1 17 -2 13 -5z m-494 -40 c-24 -18 -34 -17 -27 1 4 8 10 12 15 9 5 -3 9 0 9 6
0 6 5 8 11 5 6 -5 4 -12 -8 -21z m377 -24 c0 -5 -5 -10 -11 -10 -5 0 -7 5 -4
10 3 6 8 10 11 10 2 0 4 -4 4 -10z m-286 -25 c-4 -8 -12 -15 -20 -15 -17 0
-18 17 -1 23 22 9 27 7 21 -8z m-49 -5 c4 -6 -6 -10 -22 -9 -25 0 -26 1 -8 9
11 5 21 9 22 9 1 1 5 -3 8 -9z m240 -10 c-3 -5 -14 -10 -23 -10 -15 0 -15 2
-2 10 20 13 33 13 25 0z m-125 -4 c0 -2 -7 -7 -16 -10 -8 -3 -12 -2 -9 4 6 10
25 14 25 6z m1063 -100 c18 -14 24 -32 7 -21 -5 3 -10 -3 -10 -14 0 -12 5 -21
11 -21 5 0 7 -5 3 -11 -4 -7 -10 -7 -16 -1 -7 7 -18 6 -35 -5 -32 -21 -54 -3
-35 27 6 11 12 26 12 34 0 26 36 32 63 12z m-78 -7 c-4 -5 -17 -9 -28 -7 -12
1 -28 -1 -34 -5 -13 -8 -18 5 -6 16 11 12 75 8 68 -4z m274 -49 c15 0 61 -79
61 -104 0 -18 -7 -25 -31 -30 -43 -8 -97 -8 -102 2 -3 4 5 37 17 75 14 47 25
66 34 62 8 -3 17 -5 21 -5z m218 -206 c-3 -3 -12 -4 -19 -1 -8 3 -5 6 6 6 11
1 17 -2 13 -5z"/>
<path d="M5135 8930 c-3 -5 -1 -10 4 -10 6 0 11 5 11 10 0 6 -2 10 -4 10 -3 0
-8 -4 -11 -10z"/>
<path d="M5170 8910 c0 -5 5 -10 10 -10 6 0 10 5 10 10 0 6 -4 10 -10 10 -5 0
-10 -4 -10 -10z"/>
<path d="M5381 8878 c-22 -24 -41 -46 -41 -51 0 -4 -3 -6 -7 -4 -5 3 -9 -6 -9
-18 -2 -24 -2 -24 29 5 17 15 36 26 42 24 16 -7 31 14 40 54 9 43 -4 41 -54
-10z"/>
<path d="M5090 8889 c0 -5 5 -7 10 -4 6 3 10 8 10 11 0 2 -4 4 -10 4 -5 0 -10
-5 -10 -11z"/>
<path d="M5153 8885 c-7 -20 20 -50 36 -41 17 11 13 34 -9 46 -16 9 -22 8 -27
-5z"/>
<path d="M5247 8881 c-3 -12 -1 -24 4 -27 13 -8 24 25 12 37 -7 7 -12 3 -16
-10z"/>
<path d="M4882 8878 c7 -20 48 -23 48 -4 0 11 -9 16 -26 16 -16 0 -24 -5 -22
-12z"/>
<path d="M5515 8870 c-3 -5 3 -10 15 -10 12 0 18 5 15 10 -3 6 -10 10 -15 10
-5 0 -12 -4 -15 -10z"/>
<path d="M4810 8850 c0 -5 5 -10 10 -10 6 0 10 5 10 10 0 6 -4 10 -10 10 -5 0
-10 -4 -10 -10z"/>
<path d="M5305 8850 c-3 -5 1 -10 9 -10 9 0 16 5 16 10 0 6 -4 10 -9 10 -6 0
-13 -4 -16 -10z"/>
<path d="M5088 8843 c6 -2 18 -2 25 0 6 3 1 5 -13 5 -14 0 -19 -2 -12 -5z"/>
<path d="M5265 8830 c-3 -5 3 -10 15 -10 12 0 18 5 15 10 -3 6 -10 10 -15 10
-5 0 -12 -4 -15 -10z"/>
<path d="M4988 8804 c-8 -8 3 -44 13 -44 5 0 9 4 9 9 0 5 3 16 6 25 6 15 -16
23 -28 10z"/>
<path d="M7178 8792 c-3 -11 -2 -26 3 -33 12 -20 23 15 11 37 -8 15 -10 14
-14 -4z"/>
<path d="M5170 8761 c0 -25 6 -27 13 -6 4 8 2 17 -3 20 -6 4 -10 -3 -10 -14z"/>
<path d="M7282 8720 c0 -14 2 -19 5 -12 2 6 2 18 0 25 -3 6 -5 1 -5 -13z"/>
<path d="M7388 8596 c-24 -49 -23 -65 3 -32 11 14 19 36 17 48 -3 18 -6 16
-20 -16z"/>
<path d="M7436 8583 c-14 -20 -26 -41 -26 -46 0 -5 -7 -15 -15 -23 -11 -12
-12 -20 -3 -39 11 -25 44 -36 35 -12 -2 6 -10 11 -16 10 -6 -2 -11 2 -11 7 0
6 5 10 10 10 6 0 10 6 10 14 0 7 12 35 26 60 32 58 25 71 -10 19z"/>
<path d="M8970 8603 c-86 -8 -140 -27 -186 -65 -26 -21 -53 -37 -61 -34 -7 3
-25 -6 -40 -20 -16 -15 -36 -32 -45 -38 -9 -7 -19 -25 -22 -41 -3 -15 -11 -32
-17 -36 -7 -4 -9 -14 -6 -22 4 -10 -3 -21 -18 -31 -27 -18 -49 -21 -40 -6 4 6
-11 3 -32 -7 -54 -24 -66 -34 -54 -46 13 -13 3 -37 -14 -31 -7 3 -15 -4 -18
-15 -4 -17 -1 -21 21 -21 19 0 35 11 52 35 14 19 31 35 38 35 19 0 14 -27 -9
-43 -36 -26 -9 -29 58 -8 20 6 35 6 38 0 4 -5 1 -9 -6 -9 -7 0 -20 -7 -29 -15
-15 -14 -47 -21 -106 -24 -12 -1 -26 -12 -32 -26 -6 -13 -24 -28 -39 -31 -15
-4 -32 -11 -38 -15 -40 -32 -65 -58 -65 -69 0 -9 -6 -7 -20 5 -18 16 -22 16
-51 2 -31 -15 -31 -15 -8 -22 23 -8 79 -57 79 -71 0 -4 -8 -13 -17 -20 -10 -7
-18 -16 -18 -21 -1 -4 -6 -17 -11 -28 -6 -11 -14 -33 -18 -49 -6 -25 -5 -28
11 -21 42 17 56 18 51 4 -3 -8 -11 -14 -19 -14 -8 0 -13 -8 -11 -18 2 -9 -2
-25 -7 -36 -11 -19 6 -45 25 -39 5 1 26 -14 46 -35 l38 -37 85 3 c49 2 90 8
97 15 7 7 20 12 31 12 10 0 28 5 40 12 32 17 51 19 62 5 6 -7 26 -13 45 -13
19 -1 49 -3 65 -5 17 -1 39 1 49 6 13 6 17 5 12 -3 -11 -18 11 -23 25 -6 12
14 14 14 26 -2 12 -16 16 -17 34 -5 24 14 34 8 43 -31 5 -24 4 -28 -15 -25
-12 1 -24 -4 -26 -11 -4 -9 6 -12 34 -11 21 1 45 -2 54 -5 25 -11 31 8 14 48
-18 44 -18 46 -1 46 8 0 18 -9 21 -21 4 -12 16 -30 26 -40 19 -19 19 -19 20 4
l0 22 9 -23 c9 -21 11 -22 33 -7 22 14 26 14 51 -6 15 -12 30 -19 33 -15 4 3
1 6 -5 6 -7 0 -12 7 -12 15 0 18 7 19 25 3 8 -7 27 -24 44 -38 17 -14 43 -35
57 -47 32 -27 22 -25 108 -28 l69 -3 -28 24 c-25 21 -29 32 -30 85 -1 48 -6
65 -21 76 -10 8 -18 23 -16 33 4 27 -14 57 -40 65 -22 8 -68 52 -68 66 0 5 -7
9 -15 9 -8 0 -15 4 -15 10 0 5 -12 13 -27 16 -15 4 -38 13 -52 20 -14 8 -32
14 -39 14 -7 0 -10 5 -7 10 3 6 -3 10 -14 10 -14 0 -19 5 -15 14 4 11 0 13
-15 9 -16 -4 -19 -1 -14 17 5 19 3 21 -15 16 -12 -4 -31 -2 -42 4 -25 13 -166
52 -197 54 -12 0 -25 4 -29 9 -4 4 -20 7 -36 7 -27 0 -28 1 -16 23 7 12 11 25
10 30 -1 4 2 7 6 7 5 0 19 10 32 22 13 12 35 23 49 24 87 9 109 16 114 34 3
13 14 20 29 20 19 0 20 -2 8 -11 -11 -8 7 -9 65 -5 44 3 98 1 120 -3 22 -5 34
-9 26 -10 -22 -2 -5 -13 24 -16 14 -2 44 -18 67 -36 58 -44 67 -53 46 -46 -33
12 -29 -13 4 -27 18 -8 50 -22 72 -31 32 -14 40 -15 48 -4 8 11 9 10 4 -3 -3
-10 0 -20 6 -24 7 -4 2 -12 -12 -19 l-23 -13 21 -6 c12 -4 22 -14 22 -23 0
-17 45 -63 61 -63 5 0 9 -11 9 -25 0 -13 6 -28 13 -32 19 -13 37 -51 31 -67
-7 -18 34 -32 49 -17 8 8 8 11 -1 11 -7 0 -12 9 -12 21 0 16 4 19 20 14 16 -5
20 -2 20 17 -1 44 7 113 14 135 4 12 3 38 -3 58 -5 19 -5 35 -1 35 20 0 30 38
18 64 -12 29 -3 49 13 26 6 -10 7 3 3 40 -4 30 -10 59 -15 65 -5 5 -9 23 -9
40 0 16 -7 39 -15 49 -20 27 -19 47 3 40 15 -5 15 -4 1 8 -9 7 -15 24 -14 38
2 29 -19 66 -54 95 -28 22 -71 38 -71 25 0 -4 -8 -6 -19 -3 -10 3 -22 0 -25
-6 -5 -8 -13 -8 -27 -1 -11 7 -19 7 -19 1 0 -5 6 -12 13 -15 6 -3 1 -3 -12 0
-12 3 -39 17 -59 30 -40 27 -71 38 -99 32 -13 -2 -6 -10 27 -31 25 -16 36 -25
25 -21 -11 4 -46 9 -77 10 -32 1 -72 10 -90 20 -18 9 -58 20 -88 23 -36 4 -54
10 -52 19 1 7 -10 12 -29 12 -26 0 -29 3 -24 20 3 11 3 19 -2 18 -4 0 -24 -3
-43 -5z m-146 -68 c-6 -16 -24 -21 -24 -7 0 11 11 22 21 22 5 0 6 -7 3 -15z
m-114 -154 c0 -5 -9 -13 -20 -16 -11 -3 -20 -10 -20 -15 0 -4 -7 -11 -16 -14
-17 -6 -12 6 14 37 16 18 42 23 42 8z m60 -45 c0 -2 -7 -6 -15 -10 -8 -3 -15
-1 -15 4 0 6 7 10 15 10 8 0 15 -2 15 -4z m-160 -41 c-35 -20 -57 -20 -40 0 7
8 24 15 39 15 l26 -1 -25 -14z m925 -255 c3 -6 -1 -7 -9 -4 -18 7 -21 14 -7
14 6 0 13 -4 16 -10z m-1 -46 c10 -25 -1 -29 -14 -5 -6 12 -7 21 -1 21 5 0 12
-7 15 -16z m-1194 -8 c0 -14 -29 -31 -38 -21 -6 6 18 35 29 35 5 0 9 -6 9 -14z
m1265 -86 c3 -5 -3 -10 -14 -10 -12 0 -21 5 -21 10 0 6 6 10 14 10 8 0 18 -4
21 -10z m-753 -63 c2 -15 -4 -20 -36 -23 -36 -3 -37 -2 -20 11 10 8 25 15 32
15 6 0 12 5 12 12 0 16 7 6 12 -15z m774 12 c7 -12 -15 -31 -28 -23 -4 3 -8
12 -8 20 0 17 26 19 36 3z m-691 -37 c3 -9 1 -18 -4 -20 -6 -2 -9 -7 -6 -12 3
-4 -7 -11 -22 -14 -33 -9 -51 7 -33 29 9 11 10 18 1 28 -6 8 -8 16 -5 20 10
10 62 -14 69 -31z m-282 1 c3 -5 8 -30 12 -57 l7 -49 -57 6 c-76 8 -91 21 -64
56 28 36 91 63 102 44z m-188 -104 c11 -16 1 -19 -13 -3 -7 8 -8 14 -3 14 5 0
13 -5 16 -11z m555 -69 c0 -5 -2 -10 -4 -10 -3 0 -8 5 -11 10 -3 6 -1 10 4 10
6 0 11 -4 11 -10z"/>
<path d="M8672 8529 c-24 -23 -41 -44 -38 -47 3 -3 16 6 29 20 13 14 31 29 41
35 10 6 17 15 15 21 -2 6 -23 -7 -47 -29z"/>
<path d="M8555 8520 c-3 -5 -2 -10 4 -10 5 0 13 5 16 10 3 6 2 10 -4 10 -5 0
-13 -4 -16 -10z"/>
<path d="M8560 8480 c0 -5 5 -10 10 -10 6 0 10 5 10 10 0 6 -4 10 -10 10 -5 0
-10 -4 -10 -10z"/>
<path d="M5940 8470 c0 -5 7 -10 16 -10 8 0 12 5 9 10 -3 6 -10 10 -16 10 -5
0 -9 -4 -9 -10z"/>
<path d="M5990 8470 c0 -5 5 -10 10 -10 6 0 10 5 10 10 0 6 -4 10 -10 10 -5 0
-10 -4 -10 -10z"/>
<path d="M8472 8400 c-24 -28 -40 -50 -35 -49 22 4 25 -3 9 -20 -21 -23 -12
-49 10 -30 8 6 14 18 14 26 0 13 33 68 50 83 3 3 11 13 19 23 12 15 11 17 -5
17 -11 0 -38 -23 -62 -50z"/>
<path d="M8542 8390 c-18 -29 -15 -32 13 -14 27 18 33 34 12 34 -7 0 -18 -9
-25 -20z"/>
<path d="M5330 8220 c0 -5 5 -10 11 -10 5 0 7 5 4 10 -3 6 -8 10 -11 10 -2 0
-4 -4 -4 -10z"/>
<path d="M5295 8140 c-3 -5 -2 -10 4 -10 5 0 13 5 16 10 3 6 2 10 -4 10 -5 0
-13 -4 -16 -10z"/>
<path d="M7473 8084 c-3 -8 -1 -20 6 -27 8 -8 11 -4 11 16 0 30 -7 35 -17 11z"/>
<path d="M3392 7955 c0 -16 2 -22 5 -12 2 9 2 23 0 30 -3 6 -5 -1 -5 -18z"/>
<path d="M6410 7940 c1 -8 8 -26 16 -40 l15 -25 -6 30 c-7 33 -25 59 -25 35z"/>
<path d="M5000 7930 c-12 -7 -12 -12 -3 -21 10 -10 14 -9 19 5 8 22 2 27 -16
16z"/>
<path d="M3383 7870 c0 -25 2 -35 4 -22 2 12 2 32 0 45 -2 12 -4 2 -4 -23z"/>
<path d="M6380 7901 c0 -6 5 -13 10 -16 6 -3 10 1 10 9 0 9 -4 16 -10 16 -5 0
-10 -4 -10 -9z"/>
<path d="M3381 7784 c0 -11 3 -14 6 -6 3 7 2 16 -1 19 -3 4 -6 -2 -5 -13z"/>
<path d="M8883 7590 c4 -18 37 -27 37 -10 0 6 -5 8 -11 4 -6 -3 -16 0 -21 7
-8 12 -9 11 -5 -1z"/>
<path d="M3382 7535 c0 -16 2 -22 5 -12 2 9 2 23 0 30 -3 6 -5 -1 -5 -18z"/>
<path d="M3392 7463 c-1 -21 2 -44 7 -52 6 -9 9 0 9 26 1 52 -14 76 -16 26z"/>
<path d="M9594 7445 c11 -8 29 -15 40 -15 18 0 16 3 -8 15 -36 19 -57 19 -32
0z"/>
<path d="M3406 7353 c10 -40 14 -41 14 -5 0 18 -5 32 -10 32 -6 0 -8 -11 -4
-27z"/>
<path d="M3427 7313 c-4 -3 -7 -13 -7 -22 1 -13 3 -13 11 2 11 19 8 33 -4 20z"/>
<path d="M3430 7264 c0 -7 7 -27 15 -45 8 -19 14 -29 15 -23 0 7 -7 27 -15 45
-8 19 -14 29 -15 23z"/>
<path d="M3562 7240 c0 -14 2 -19 5 -12 2 6 2 18 0 25 -3 6 -5 1 -5 -13z"/>
<path d="M4665 7227 c-4 -10 -5 -21 -1 -24 10 -10 18 4 13 24 -4 17 -4 17 -12
0z"/>
<path d="M4742 7214 c4 -21 22 -23 26 -1 2 10 -3 17 -13 17 -10 0 -15 -6 -13
-16z"/>
<path d="M4206 7191 c-4 -7 -5 -15 -2 -18 9 -9 19 4 14 18 -4 11 -6 11 -12 0z"/>
<path d="M3461 7170 c0 -8 4 -22 9 -30 12 -18 12 -2 0 25 -6 13 -9 15 -9 5z"/>
<path d="M5244 6966 c-4 -10 -2 -22 4 -28 8 -8 13 -7 18 6 4 10 2 22 -4 28 -8
8 -13 7 -18 -6z"/>
<path d="M4732 6948 c6 -18 28 -21 28 -4 0 9 -7 16 -16 16 -9 0 -14 -5 -12
-12z"/>
<path d="M4762 6906 c7 -8 15 -12 17 -11 5 6 -10 25 -20 25 -5 0 -4 -6 3 -14z"/>
<path d="M5114 6886 c-7 -29 1 -46 21 -46 16 0 31 43 20 59 -11 19 -34 12 -41
-13z"/>
<path d="M4211 6854 c0 -11 3 -14 6 -6 3 7 2 16 -1 19 -3 4 -6 -2 -5 -13z"/>
<path d="M4885 6731 c-3 -5 -1 -12 5 -16 12 -7 30 2 30 16 0 12 -27 12 -35 0z"/>
<path d="M6884 6717 c-11 -12 -24 -35 -28 -52 -4 -16 -14 -37 -21 -45 -36 -40
-37 -141 -2 -224 10 -21 17 -49 17 -62 0 -13 5 -24 11 -24 13 0 2 -39 -18 -62
-9 -10 -13 -26 -10 -37 4 -18 -16 -37 -36 -32 -17 3 -19 -31 -2 -43 20 -15 25
-98 6 -104 -19 -6 -12 -25 8 -19 20 5 36 -17 25 -34 -3 -5 4 -9 15 -9 14 0 21
6 21 20 0 11 5 20 10 20 6 0 10 -4 10 -10 0 -5 7 -10 15 -10 8 0 15 -5 15 -11
0 -6 -9 -8 -20 -4 -14 4 -20 2 -20 -8 0 -8 -9 -17 -21 -20 -37 -10 -16 -32 27
-29 46 5 54 10 34 22 -9 6 -10 10 -3 10 6 0 15 -5 18 -10 10 -17 27 0 22 22
-4 15 -1 18 13 13 12 -4 19 1 23 15 5 20 27 28 27 10 0 -5 9 -10 20 -10 11 0
20 -7 20 -15 0 -8 7 -15 15 -15 8 0 15 -4 15 -10 0 -5 -5 -10 -10 -10 -13 0
-30 -42 -22 -55 4 -5 6 -19 5 -30 -1 -12 0 -14 3 -4 5 16 70 19 95 3 9 -5 10
-2 6 9 -4 12 -1 17 9 17 12 0 15 -6 11 -21 -7 -27 15 -20 28 9 12 26 23 27 53
6 12 -8 31 -13 41 -9 10 3 24 -1 31 -10 17 -21 30 -19 30 4 0 11 4 22 9 25 15
9 40 -4 35 -19 -8 -20 25 -26 51 -9 14 9 23 20 20 24 -3 4 2 11 11 14 23 9 24
8 24 -11 -1 -22 -23 -53 -39 -53 -6 0 -11 -6 -11 -14 0 -17 27 -29 35 -16 4 6
21 3 43 -6 20 -9 52 -16 70 -15 22 0 32 -4 32 -14 0 -8 7 -15 15 -15 8 0 15 9
15 20 0 24 13 26 30 5 11 -13 15 -13 29 -2 11 9 39 13 83 11 58 -1 68 1 73 17
5 14 11 16 30 9 27 -10 93 -2 114 14 12 9 14 8 9 -4 -4 -12 3 -15 41 -14 25 1
40 -1 34 -3 -18 -7 -16 -33 2 -33 8 0 15 6 15 13 0 7 5 18 11 24 13 13 59 -6
59 -25 0 -9 16 -12 52 -11 32 2 53 -2 56 -9 5 -17 22 -15 22 3 0 8 5 15 10 15
6 0 9 -5 8 -12 -2 -6 5 -14 15 -16 15 -3 18 0 12 17 -4 12 -2 21 4 21 6 0 11
-6 11 -14 0 -23 19 -29 35 -12 8 8 15 17 15 19 0 9 -62 27 -72 21 -6 -4 -14 0
-19 7 -5 8 -18 14 -30 14 -30 0 -37 25 -7 27 13 0 31 1 41 0 9 -1 17 5 17 12
0 9 -7 12 -20 9 -23 -6 -50 18 -49 44 0 10 3 13 5 6 4 -8 12 -5 26 9 13 13 17
23 10 30 -16 16 -2 46 27 57 19 7 21 10 7 10 -12 1 -16 6 -12 17 3 9 9 27 13
41 5 23 3 25 -16 20 -24 -6 -28 5 -6 23 8 7 15 17 15 22 0 5 9 21 20 35 26 33
26 35 -11 57 -43 26 -125 24 -170 -3 -18 -11 -65 -51 -104 -88 -110 -106 -116
-110 -143 -97 -12 6 -28 19 -35 28 -11 14 -21 16 -69 8 l-57 -9 -39 42 c-22
24 -43 52 -47 64 -3 11 -11 21 -17 21 -5 0 -8 6 -5 13 2 6 -5 22 -16 35 -12
13 -22 33 -22 45 0 12 -13 42 -28 65 -21 32 -33 43 -47 39 -10 -3 -21 1 -24 8
-6 17 -56 25 -78 14 -10 -5 -18 -19 -18 -29 0 -23 -18 -27 -26 -5 -9 22 -41
19 -54 -5 -9 -17 -14 -18 -31 -7 -13 8 -22 9 -27 2 -4 -5 -50 -10 -102 -11
-52 -1 -112 -5 -132 -9 -51 -10 -88 0 -88 25 0 11 -4 20 -9 20 -5 0 -11 9 -14
21 -3 12 -10 18 -15 15 -15 -9 -42 39 -42 74 0 16 -5 30 -11 30 -5 0 -7 5 -3
12 4 6 9 34 11 61 2 28 8 58 13 68 13 23 2 49 -19 49 -9 0 -25 -10 -37 -23z
m240 -771 c-10 -8 -21 -12 -24 -10 -5 6 21 24 34 24 6 0 1 -6 -10 -14z m1156
-111 c0 -9 10 -20 23 -25 12 -5 15 -9 7 -9 -8 0 -20 3 -26 7 -15 10 -25 42
-14 42 6 0 10 -7 10 -15z"/>
<path d="M4862 6679 c2 -6 8 -10 13 -10 5 0 11 4 13 10 2 6 -4 11 -13 11 -9 0
-15 -5 -13 -11z"/>
<path d="M3806 6664 c-4 -9 -4 -19 -1 -22 2 -3 7 3 11 12 4 9 4 19 1 22 -2 3
-7 -3 -11 -12z"/>
<path d="M4920 6678 c0 -2 7 -21 14 -43 12 -34 15 -37 22 -20 4 11 9 23 10 26
2 4 -7 14 -21 23 -14 9 -25 15 -25 14z"/>
<path d="M4961 6554 c0 -11 3 -14 6 -6 3 7 2 16 -1 19 -3 4 -6 -2 -5 -13z"/>
<path d="M4887 6543 c-12 -14 -12 -20 -3 -29 17 -15 51 9 43 31 -8 20 -20 19
-40 -2z"/>
<path d="M4950 6509 c0 -5 5 -7 10 -4 6 3 10 8 10 11 0 2 -4 4 -10 4 -5 0 -10
-5 -10 -11z"/>
<path d="M4940 6431 c0 -6 5 -13 10 -16 6 -3 10 1 10 9 0 9 -4 16 -10 16 -5 0
-10 -4 -10 -9z"/>
<path d="M4935 6380 c-10 -16 22 -47 34 -35 5 6 2 17 -9 28 -13 13 -20 15 -25
7z"/>
<path d="M4981 6306 c-11 -14 -7 -40 12 -64 8 -10 15 -5 29 24 10 21 17 38 15
39 -14 12 -46 13 -56 1z"/>
<path d="M5067 6314 c-8 -8 1 -24 14 -24 5 0 9 7 9 15 0 15 -12 20 -23 9z"/>
<path d="M5068 6237 c-31 -12 -37 -26 -10 -23 9 0 16 -4 15 -10 -1 -7 6 -10
17 -7 11 3 20 9 20 13 0 4 10 10 22 13 12 4 20 8 18 10 -13 11 -58 13 -82 4z"/>
<path d="M5263 6133 c-18 -7 -16 -23 2 -23 8 0 15 7 15 15 0 8 -1 15 -2 14 -2
0 -9 -3 -15 -6z"/>
<path d="M5182 6113 c-10 -4 -10 -8 -1 -19 9 -11 15 -11 25 -3 27 22 11 36
-24 22z"/>
<path d="M5241 6084 c0 -11 3 -14 6 -6 3 7 2 16 -1 19 -3 4 -6 -2 -5 -13z"/>
<path d="M9545 6087 c-4 -10 -5 -21 -1 -24 10 -10 18 4 13 24 -4 17 -4 17 -12
0z"/>
<path d="M5903 5958 c-59 -62 -133 -191 -119 -206 4 -4 19 7 34 23 14 17 32
29 40 27 8 -2 19 2 23 10 5 8 8 2 6 -17 -1 -18 3 -29 9 -28 8 1 10 -6 6 -19
-3 -15 -2 -19 7 -14 13 8 5 72 -12 94 -7 9 -5 18 7 30 9 10 16 28 16 40 0 16
5 21 22 19 20 -2 22 3 23 51 1 28 1 52 0 52 -1 0 -29 -28 -62 -62z"/>
<path d="M5294 5958 c0 -18 -2 -39 -4 -47 -3 -7 1 -16 9 -19 10 -3 13 1 8 17
-3 14 0 21 9 21 8 0 14 7 14 15 0 8 -4 15 -10 15 -5 0 -10 7 -10 15 0 8 -4 15
-8 15 -5 0 -8 -15 -8 -32z"/>
<path d="M6799 5983 c-1 -5 -1 -11 0 -15 0 -5 -6 -8 -14 -8 -8 0 -15 -5 -15
-11 0 -6 -7 -9 -15 -5 -10 3 -15 -1 -15 -14 0 -21 16 -35 24 -21 4 6 18 6 38
0 40 -11 49 -3 20 17 -16 11 -21 21 -16 40 3 13 3 24 0 24 -3 0 -7 -3 -7 -7z"/>
<path d="M5213 5963 c-26 -10 -13 -33 17 -33 28 0 30 2 20 20 -11 20 -16 22
-37 13z"/>
<path d="M5380 5945 c-15 -39 -12 -55 9 -55 39 0 49 9 42 43 -9 41 -37 48 -51
12z"/>
<path d="M5093 5941 c-13 -20 -1 -41 24 -41 15 0 15 5 7 38 -8 27 -16 28 -31
3z"/>
<path d="M8420 5936 c0 -9 5 -16 10 -16 6 0 10 4 10 9 0 6 -4 13 -10 16 -5 3
-10 -1 -10 -9z"/>
<path d="M6680 5914 c0 -8 5 -12 10 -9 6 3 10 10 10 16 0 5 -4 9 -10 9 -5 0
-10 -7 -10 -16z"/>
<path d="M6923 5913 c-18 -7 -16 -33 2 -33 8 0 15 6 15 14 0 8 10 17 23 19 20
4 20 4 -3 5 -14 0 -31 -2 -37 -5z"/>
<path d="M6540 5890 c0 -11 4 -20 9 -20 5 0 7 9 4 20 -3 11 -7 20 -9 20 -2 0
-4 -9 -4 -20z"/>
<path d="M7006 5902 c-7 -12 22 -38 31 -28 4 3 0 14 -9 22 -9 10 -18 12 -22 6z"/>
<path d="M6016 5881 c-4 -7 -5 -15 -2 -18 9 -9 19 4 14 18 -4 11 -6 11 -12 0z"/>
<path d="M5205 5851 c-3 -5 -1 -12 5 -16 5 -3 10 1 10 9 0 18 -6 21 -15 7z"/>
<path d="M5380 5839 c0 -5 5 -7 10 -4 6 3 10 8 10 11 0 2 -4 4 -10 4 -5 0 -10
-5 -10 -11z"/>
<path d="M5276 5825 c-3 -8 -1 -15 4 -15 6 0 10 7 10 15 0 8 -2 15 -4 15 -2 0
-6 -7 -10 -15z"/>
<path d="M5326 5814 c-4 -10 -1 -14 6 -12 15 5 23 28 10 28 -5 0 -13 -7 -16
-16z"/>
<path d="M5170 5800 c0 -5 4 -10 9 -10 6 0 13 5 16 10 3 6 -1 10 -9 10 -9 0
-16 -4 -16 -10z"/>
<path d="M5245 5731 c-3 -5 -1 -12 5 -16 5 -3 10 1 10 9 0 18 -6 21 -15 7z"/>
<path d="M9000 5698 c-1 -18 -2 -75 -4 -125 -4 -91 5 -116 24 -70 17 41 33
112 31 137 -3 33 -29 90 -41 90 -6 0 -10 -15 -10 -32z"/>
<path d="M6335 5710 c-3 -6 -3 -19 0 -30 8 -24 -16 -27 -39 -5 -21 21 -35 19
-48 -10 -7 -15 -20 -25 -32 -25 -12 0 -34 -9 -50 -19 -16 -11 -35 -17 -42 -14
-10 4 -14 -3 -14 -22 0 -19 -4 -26 -14 -22 -12 5 -12 2 0 -21 8 -15 14 -37 14
-48 0 -12 7 -27 15 -34 9 -7 14 -18 12 -25 -3 -6 7 -27 22 -47 14 -20 44 -62
66 -92 22 -30 48 -58 57 -61 9 -3 20 -16 24 -28 6 -21 21 -37 36 -37 4 0 5 7
2 15 -12 31 15 13 66 -42 30 -32 66 -63 82 -70 15 -7 28 -19 28 -29 0 -10 5
-14 14 -11 14 6 56 -26 56 -43 0 -4 -6 -10 -12 -13 -7 -2 -10 -8 -6 -12 4 -4
14 -2 23 5 12 10 18 10 30 0 8 -7 15 -9 15 -6 0 4 12 -5 27 -19 28 -26 57 -32
68 -16 3 6 -3 14 -12 20 -17 10 -17 10 0 11 9 0 17 5 17 11 0 8 4 9 13 0 8 -6
16 -10 18 -8 2 1 16 -10 31 -25 28 -29 24 -34 -26 -28 -11 1 -15 -3 -12 -9 4
-6 16 -11 26 -11 10 0 22 -4 25 -10 3 -5 22 -10 41 -10 30 0 34 3 29 19 -12
37 69 66 117 40 25 -13 55 -82 39 -87 -9 -3 -9 -7 0 -18 13 -16 49 -19 49 -4
0 6 -4 10 -10 10 -14 0 -12 16 3 32 8 7 11 20 9 28 -4 12 -3 13 10 2 9 -7 40
-19 69 -28 63 -18 102 -41 94 -54 -4 -6 -1 -10 4 -10 6 0 11 -4 11 -9 0 -5
-10 -7 -22 -3 -13 3 -19 1 -15 -5 7 -10 55 -23 107 -28 14 -2 53 -12 88 -23
34 -11 64 -16 67 -12 3 4 -6 11 -20 14 -14 4 -25 10 -25 15 0 12 22 28 45 33
11 2 19 10 18 16 -4 16 59 16 75 0 10 -10 15 -10 21 1 7 11 23 12 67 7 61 -7
88 -21 80 -42 -7 -19 15 -32 49 -29 101 9 161 18 170 25 6 5 22 -8 39 -30 16
-21 39 -41 52 -44 25 -7 31 -20 15 -31 -5 -3 -7 -22 -4 -42 5 -28 3 -35 -8
-31 -8 2 -18 14 -24 26 -5 12 -15 22 -22 22 -6 0 -22 12 -34 28 -14 17 -20 20
-15 8 3 -10 2 -24 -2 -30 -5 -6 -12 -23 -16 -38 -5 -24 -3 -28 14 -28 13 0 22
-9 26 -25 9 -36 44 -34 45 3 1 15 3 20 6 11 8 -31 51 -18 70 21 9 19 21 39 27
43 8 6 7 10 -1 14 -7 2 -13 18 -13 34 0 22 -7 32 -30 44 -16 9 -30 22 -30 30
0 8 -8 15 -17 15 -9 0 -13 3 -10 7 4 3 2 12 -4 20 -9 10 -7 13 7 13 27 1 59
26 42 34 -7 3 1 4 17 2 31 -5 70 15 57 29 -4 5 1 5 11 2 9 -4 17 -2 17 5 0 6
8 1 19 -10 10 -12 24 -22 30 -22 7 0 9 -4 6 -10 -3 -5 -14 -10 -24 -10 -36 0
-34 -69 2 -99 14 -11 17 -7 25 26 6 21 12 59 15 85 4 40 2 48 -14 53 -26 9
-24 28 6 41 18 9 24 9 22 0 -2 -14 52 -9 70 6 17 14 17 29 0 22 -8 -3 -20 3
-28 12 -13 16 -12 17 12 11 16 -4 33 -1 47 9 24 17 29 49 10 57 -7 3 -3 6 9 6
12 1 30 13 40 28 10 15 35 44 56 64 20 21 37 43 37 49 0 5 7 10 15 10 8 0 15
7 15 15 0 8 6 15 13 15 6 0 39 32 72 70 33 39 67 70 76 70 11 0 15 11 15 44
-1 44 -1 44 -26 32 -15 -8 -35 -10 -50 -5 -14 4 -40 7 -57 8 -22 1 -33 6 -33
16 0 9 -9 15 -24 15 -14 0 -28 4 -31 10 -3 5 -25 14 -48 20 -23 6 -51 15 -62
20 -11 5 -61 12 -111 14 -50 3 -103 8 -117 11 -13 4 -28 2 -31 -3 -9 -14 -46
-2 -46 14 0 8 -4 14 -10 14 -5 0 -10 -7 -10 -15 0 -8 -7 -15 -15 -15 -8 0 -15
7 -15 15 0 18 -4 19 -30 3 -14 -9 -25 -10 -37 -3 -10 6 -42 10 -70 10 -29 0
-53 3 -53 7 0 3 -9 4 -20 1 -11 -3 -17 -10 -13 -16 4 -6 0 -8 -10 -4 -9 3 -26
-2 -38 -12 -25 -20 -59 -17 -59 5 0 8 -6 11 -16 7 -11 -4 -12 -9 -5 -16 21
-21 10 -29 -31 -22 -35 6 -41 5 -30 -6 6 -7 12 -18 12 -23 0 -6 -11 3 -25 19
-14 17 -22 37 -19 48 3 9 1 17 -5 17 -6 0 -11 -7 -11 -14 0 -11 -11 -15 -40
-13 -31 1 -40 6 -43 22 -4 19 -5 19 -12 -2 -8 -24 -40 -32 -47 -12 -3 9 -10 9
-26 0 -12 -7 -22 -8 -21 -4 4 25 -2 34 -20 28 -36 -11 -96 -13 -109 -3 -6 6
-25 8 -40 5 -21 -4 -31 -1 -40 13 -10 16 -17 18 -37 10 -15 -6 -26 -6 -30 0
-10 16 -45 11 -45 -5 0 -19 -1 -19 -54 9 -33 17 -47 21 -56 12 -8 -8 -13 -7
-19 3 -5 8 -14 10 -21 6 -8 -5 -11 -4 -7 2 8 12 -85 24 -93 12 -3 -4 -17 -5
-32 -3 -16 2 -40 6 -55 8 -16 2 -34 -1 -41 -7 -10 -8 -16 -7 -21 1 -5 9 -28
11 -77 7 -56 -5 -181 -8 -217 -6 -5 1 -5 10 -2 21 4 12 1 27 -5 35 -14 17 -46
20 -55 5z m1189 -201 c-3 -5 -10 -7 -15 -3 -5 3 -7 10 -3 15 3 5 10 7 15 3 5
-3 7 -10 3 -15z m-671 -85 c18 -10 38 -25 45 -35 25 -36 46 -40 75 -13 19 17
38 24 66 24 22 0 43 5 47 11 4 8 31 9 84 5 42 -4 127 -9 189 -11 63 -2 119 -9
126 -15 8 -7 23 -9 35 -5 12 4 27 1 35 -5 15 -12 200 -15 229 -4 8 3 31 1 51
-5 26 -7 44 -7 61 1 26 12 57 5 133 -29 25 -11 39 -13 51 -5 18 11 101 9 120
-3 8 -5 11 -26 8 -61 -3 -38 -1 -51 6 -45 6 4 21 11 34 14 20 5 22 2 22 -40 0
-47 -25 -149 -42 -170 -6 -7 -19 -13 -29 -13 -11 0 -19 -4 -19 -9 0 -15 -66
-81 -80 -81 -7 0 -28 16 -46 36 l-34 35 -23 -26 c-27 -32 -106 -46 -132 -25
-9 7 -17 11 -18 9 -2 -2 -11 -16 -20 -31 -16 -25 -23 -28 -75 -28 -107 1 -185
17 -208 43 -20 23 -21 24 -32 6 -11 -17 -26 -19 -127 -19 -131 0 -181 14 -190
53 -6 20 -13 24 -53 25 -26 1 -72 9 -102 19 -61 20 -80 44 -80 106 0 42 -9 46
-35 17 -20 -22 -60 -36 -122 -43 -40 -5 -44 -3 -77 38 -19 23 -32 45 -29 49 4
3 1 6 -5 6 -7 0 -12 -4 -12 -10 0 -5 -10 -19 -22 -31 -20 -19 -20 -21 -4 -15
16 6 17 4 6 -9 -7 -9 -16 -12 -19 -8 -3 4 -15 15 -25 23 -18 13 -19 13 -11 0
5 -10 5 -12 -2 -5 -9 8 -31 66 -33 85 -1 3 -5 22 -9 43 -10 41 5 107 23 107 6
0 32 -23 57 -50 26 -28 49 -47 52 -43 3 4 8 27 12 50 11 67 39 95 103 102 7 0
27 -6 45 -15z m-369 -127 c-3 -61 -3 -61 -19 -47 -12 10 -14 45 -6 78 1 1 7 2
14 2 7 0 11 -12 11 -33z m1790 -333 c6 -15 4 -15 -11 -3 -14 11 -15 12 -9 0 5
-8 3 -16 -5 -21 -20 -13 -30 -1 -19 21 13 23 36 25 44 3z m-84 -53 c0 -6 -4
-13 -10 -16 -5 -3 -10 1 -10 9 0 9 5 16 10 16 6 0 10 -4 10 -9z m-320 -124 c0
-8 -9 -22 -20 -32 -16 -15 -23 -16 -33 -6 -9 9 -7 16 13 31 30 23 40 25 40 7z"/>
<path d="M6951 5234 c0 -11 3 -14 6 -6 3 7 2 16 -1 19 -3 4 -6 -2 -5 -13z"/>
<path d="M8764 5709 c-3 -6 -1 -16 5 -22 8 -8 11 -5 11 11 0 24 -5 28 -16 11z"/>
<path d="M5200 5691 c0 -14 28 -33 40 -26 20 12 10 35 -15 35 -14 0 -25 -4
-25 -9z"/>
<path d="M5345 5650 c3 -5 8 -10 11 -10 2 0 4 5 4 10 0 6 -5 10 -11 10 -5 0
-7 -4 -4 -10z"/>
<path d="M5305 5620 c3 -5 8 -10 11 -10 2 0 4 5 4 10 0 6 -5 10 -11 10 -5 0
-7 -4 -4 -10z"/>
<path d="M5330 5526 c0 -9 5 -16 10 -16 6 0 10 4 10 9 0 6 -4 13 -10 16 -5 3
-10 -1 -10 -9z"/>
<path d="M8833 5413 c-10 -3 -10 -8 1 -19 20 -19 26 -18 26 6 0 20 -5 23 -27
13z"/>
<path d="M5370 5370 c0 -5 5 -10 10 -10 6 0 10 5 10 10 0 6 -4 10 -10 10 -5 0
-10 -4 -10 -10z"/>
<path d="M5470 5240 c0 -5 7 -7 15 -4 8 4 15 8 15 10 0 2 -7 4 -15 4 -8 0 -15
-4 -15 -10z"/>
<path d="M6389 5137 c6 -8 8 -17 4 -21 -4 -4 0 -4 10 0 14 5 15 9 6 20 -6 8
-16 14 -21 14 -7 0 -6 -5 1 -13z"/>
<path d="M5515 5130 c-3 -6 1 -13 9 -16 24 -9 20 -37 -4 -29 -15 5 -18 3 -14
-9 8 -20 21 -20 40 -2 10 11 12 21 4 40 -10 27 -24 33 -35 16z"/>
<path d="M9220 5124 c0 -8 5 -12 10 -9 6 4 8 11 5 16 -9 14 -15 11 -15 -7z"/>
<path d="M9190 5082 c0 -10 46 -10 56 1 4 4 -7 7 -24 7 -18 0 -32 -4 -32 -8z"/>
<path d="M6480 5045 c-7 -8 -8 -15 -2 -15 5 0 15 7 22 15 7 8 8 15 2 15 -5 0
-15 -7 -22 -15z"/>
<path d="M9163 4993 c-3 -8 -3 -17 1 -20 3 -4 6 2 7 13 0 18 1 18 8 0 7 -19 8
-19 13 0 6 24 -20 30 -29 7z"/>
<path d="M4401 4934 c0 -11 3 -14 6 -6 3 7 2 16 -1 19 -3 4 -6 -2 -5 -13z"/>
<path d="M5600 4941 c0 -6 5 -13 10 -16 6 -3 10 1 10 9 0 9 -4 16 -10 16 -5 0
-10 -4 -10 -9z"/>
<path d="M9131 4897 c-13 -21 -12 -21 5 -5 10 10 16 20 13 22 -3 3 -11 -5 -18
-17z"/>
<path d="M8290 4891 c0 -11 26 -22 34 -14 3 3 3 10 0 14 -7 12 -34 11 -34 0z"/>
<path d="M6900 4860 c0 -5 6 -10 14 -10 8 0 23 -3 33 -6 16 -5 16 -4 -1 10
-22 18 -46 21 -46 6z"/>
<path d="M4325 4811 c-82 -50 -165 -181 -185 -291 -41 -229 -41 -1025 -1
-1400 28 -257 71 -418 177 -666 78 -185 77 -182 136 -264 25 -36 70 -104 100
-152 82 -134 139 -197 354 -393 54 -49 142 -131 194 -182 182 -175 237 -220
345 -284 56 -33 148 -79 160 -79 2 0 33 -14 67 -31 132 -64 299 -117 551 -175
213 -48 314 -52 507 -20 146 24 162 29 276 86 108 53 130 68 189 132 37 40 78
95 92 123 24 47 107 154 195 252 21 24 49 68 63 100 14 31 43 80 65 108 21 28
53 80 69 115 39 83 81 200 73 200 -4 0 -24 -28 -44 -63 -21 -34 -65 -91 -98
-127 -33 -35 -60 -70 -60 -78 0 -7 -4 -10 -10 -7 -5 3 -10 -1 -10 -9 0 -9 -7
-16 -15 -16 -8 0 -15 -7 -15 -15 0 -9 -6 -12 -15 -9 -9 4 -15 0 -15 -10 0 -9
-7 -16 -16 -16 -11 0 -14 -6 -8 -22 6 -20 5 -21 -9 -10 -10 9 -17 10 -22 2 -3
-5 -15 -10 -26 -10 -21 0 -26 -16 -6 -23 6 -3 2 -6 -10 -6 -15 -1 -21 -6 -17
-15 3 -9 -5 -15 -25 -19 -20 -4 -31 -13 -31 -23 0 -12 -7 -15 -25 -11 -24 4
-25 3 -10 -13 15 -16 14 -18 -8 -24 -14 -3 -27 -15 -30 -25 -3 -13 -17 -22
-41 -26 -25 -5 -41 -16 -53 -36 -11 -18 -20 -24 -24 -17 -12 19 -41 -18 -34
-43 6 -18 4 -21 -9 -16 -9 4 -16 2 -16 -4 0 -5 -12 -15 -26 -21 -20 -9 -27 -9
-34 1 -6 10 -13 6 -30 -16 -16 -23 -27 -29 -46 -25 -18 3 -30 -2 -39 -15 -17
-24 -47 -34 -66 -23 -10 7 -10 11 1 25 9 11 10 19 2 27 -15 15 -35 -1 -29 -23
3 -10 1 -22 -4 -25 -5 -3 -9 4 -9 14 0 16 -5 19 -22 14 -14 -3 -19 -2 -14 6 4
7 13 12 21 12 7 0 15 4 17 9 2 5 15 13 30 16 22 6 29 2 41 -20 11 -22 15 -24
20 -12 4 10 -2 22 -15 31 -15 11 -19 21 -14 40 3 14 12 26 20 26 7 0 19 7 27
16 11 13 9 14 -17 8 -39 -9 -64 -23 -64 -34 0 -6 -7 -10 -15 -10 -9 0 -12 6
-9 15 5 11 -1 15 -19 15 -41 0 -57 -10 -57 -36 0 -18 -5 -24 -22 -24 -20 0
-20 1 -5 18 22 24 24 50 2 32 -8 -7 -22 -10 -30 -6 -14 5 -20 -9 -16 -41 1 -7
-5 -13 -14 -13 -9 0 -13 5 -9 11 7 12 -13 29 -36 29 -13 0 -13 -1 0 -11 11 -8
8 -9 -13 -4 -25 5 -28 3 -22 -15 4 -14 2 -20 -9 -20 -8 0 -18 5 -21 10 -8 13
-52 13 -57 -1 -6 -17 -129 -22 -158 -6 -21 11 -31 11 -60 -1 -24 -10 -35 -11
-38 -3 -2 6 -15 11 -30 11 -33 0 -84 16 -157 49 -5 2 -2 -8 8 -22 20 -30 18
-32 -18 -15 -14 6 -21 14 -15 18 6 4 7 17 0 39 -5 19 -7 38 -4 42 3 5 3 9 -1
9 -3 0 -11 -12 -17 -27 l-12 -28 -4 28 c-3 22 -8 27 -30 26 -17 -1 -21 -3 -9
-6 18 -5 23 -18 8 -27 -8 -5 -89 58 -104 81 -9 15 -47 17 -47 3 0 -5 5 -10 11
-10 22 0 2 -24 -26 -32 -25 -6 -34 -3 -57 23 -16 17 -26 34 -24 38 3 4 1 13
-5 21 -6 11 -9 4 -9 -24 l0 -39 -25 27 c-14 15 -25 31 -25 37 0 5 -7 9 -15 9
-21 0 -85 65 -86 87 0 14 -2 15 -6 3 -10 -26 -43 -52 -59 -46 -9 3 -18 15 -21
26 -6 23 -5 22 -54 25 -21 1 -46 11 -60 24 -24 22 -49 28 -49 11 0 -5 -4 -10
-10 -10 -5 0 -10 6 -10 14 0 8 -10 18 -22 22 -27 8 -53 33 -62 60 -3 10 -17
24 -31 30 -21 10 -25 9 -30 -7 -7 -20 -25 -26 -25 -9 0 14 -27 12 -34 -2 -2
-7 -4 -2 -3 11 1 17 -3 24 -18 26 -41 4 -71 18 -106 51 -19 19 -48 37 -64 40
-16 3 -35 14 -43 25 -7 11 -18 16 -24 13 -7 -5 -9 0 -6 14 4 15 0 23 -13 27
-10 4 -24 15 -29 26 -6 10 -17 19 -25 19 -8 0 -15 5 -15 10 0 6 -9 10 -20 10
-11 0 -20 4 -20 10 0 5 -9 14 -20 20 -15 8 -19 7 -16 -2 1 -7 1 -10 -1 -5 -3
4 -9 4 -15 1 -5 -4 -5 3 2 16 6 12 9 24 6 28 -3 3 -6 0 -6 -6 0 -7 -5 -12 -11
-12 -6 0 -9 7 -6 14 4 11 1 13 -10 9 -12 -5 -14 -1 -8 15 4 13 2 22 -4 22 -6
0 -11 -5 -11 -12 0 -6 -19 15 -41 48 -23 32 -45 61 -50 62 -5 2 -9 8 -9 13 0
6 -10 23 -21 38 -12 16 -19 34 -15 39 3 5 -1 13 -10 16 -10 4 -14 14 -11 26 3
11 2 18 -3 15 -12 -7 -52 108 -45 130 6 16 5 17 -4 5 -9 -12 -11 -11 -11 8 0
13 -4 21 -9 18 -5 -3 -11 8 -15 24 -3 17 -16 54 -30 83 -29 62 -41 123 -26
132 5 3 9 18 9 33 -1 21 -2 22 -6 7 -9 -37 -19 -35 -18 4 0 21 4 37 8 34 5 -3
4 3 -2 14 -5 11 -9 28 -9 39 1 10 -6 52 -16 91 -10 40 -15 80 -12 89 3 8 2 12
-4 9 -6 -4 -10 12 -9 42 1 44 2 45 10 18 6 -23 7 -15 5 33 -1 34 0 62 4 62 3
0 7 12 8 27 1 15 8 31 15 36 9 6 9 10 1 13 -9 4 -8 17 1 52 44 154 64 324 90
732 8 135 20 301 26 369 5 69 9 136 7 150 -1 15 1 31 5 38 13 21 11 81 -3 98
-11 13 -11 16 0 13 7 -2 15 3 18 11 3 9 0 11 -9 6 -8 -5 -6 0 4 12 36 42 14
56 -38 24z m-4 -68 c-12 -20 -14 -14 -5 12 4 9 9 14 11 11 3 -2 0 -13 -6 -23z
m964 -3153 c3 -5 -1 -10 -10 -10 -9 0 -13 5 -10 10 3 6 8 10 10 10 2 0 7 -4
10 -10z m105 -93 c-27 -15 -36 -14 -25 2 3 6 16 11 28 11 21 0 21 -1 -3 -13z"/>
<path d="M6673 4803 c-7 -3 -13 -16 -13 -30 0 -20 4 -23 20 -18 11 4 20 2 20
-4 0 -6 11 -11 25 -11 18 0 25 5 25 18 0 34 -40 57 -77 45z"/>
<path d="M5770 4761 c-8 -6 -17 -8 -21 -5 -9 5 -23 -15 -16 -22 2 -2 16 0 31
5 23 9 26 8 26 -9 0 -11 4 -20 8 -20 5 0 9 14 9 30 0 31 -11 37 -37 21z"/>
<path d="M6855 4750 c-5 -8 -8 -23 -7 -33 2 -10 -2 -16 -10 -15 -8 2 -14 -9
-16 -29 -4 -36 4 -40 32 -20 13 10 17 24 14 62 -2 37 -6 46 -13 35z"/>
<path d="M8933 4753 c-15 -5 -17 -23 -4 -23 5 0 11 7 15 15 3 8 4 15 3 14 -1
0 -8 -3 -14 -6z"/>
<path d="M7546 4731 c-18 -7 -18 -8 4 -14 16 -4 30 -1 40 8 13 13 12 15 -5 14
-11 0 -29 -4 -39 -8z"/>
<path d="M7725 4730 c3 -5 8 -10 11 -10 2 0 4 5 4 10 0 6 -5 10 -11 10 -5 0
-7 -4 -4 -10z"/>
<path d="M5860 4705 c0 -8 7 -15 16 -15 14 0 14 3 4 15 -7 8 -14 15 -16 15 -2
0 -4 -7 -4 -15z"/>
<path d="M5700 4681 c0 -11 -4 -22 -10 -26 -13 -8 0 -36 16 -33 7 2 20 -6 29
-17 16 -20 16 -19 10 5 -4 14 -12 30 -19 35 -6 6 -10 20 -8 33 2 12 -1 22 -7
22 -6 0 -11 -9 -11 -19z"/>
<path d="M5730 4691 c0 -6 4 -13 10 -16 6 -3 7 1 4 9 -7 18 -14 21 -14 7z"/>
<path d="M8960 4655 c0 -8 5 -15 10 -15 6 0 10 7 10 15 0 8 -4 15 -10 15 -5 0
-10 -7 -10 -15z"/>
<path d="M8762 4615 c0 -16 2 -22 5 -12 2 9 2 23 0 30 -3 6 -5 -1 -5 -18z"/>
<path d="M8821 4624 c0 -11 3 -14 6 -6 3 7 2 16 -1 19 -3 4 -6 -2 -5 -13z"/>
<path d="M5880 4570 c0 -5 4 -10 9 -10 6 0 13 5 16 10 3 6 -1 10 -9 10 -9 0
-16 -4 -16 -10z"/>
<path d="M5770 4544 c0 -8 5 -12 10 -9 6 3 10 10 10 16 0 5 -4 9 -10 9 -5 0
-10 -7 -10 -16z"/>
<path d="M5903 4520 c-2 -24 12 -27 21 -4 8 22 8 24 -7 24 -7 0 -13 -9 -14
-20z"/>
<path d="M5947 4474 c-15 -8 -27 -21 -27 -29 0 -18 5 -18 31 -5 20 11 28 -3 9
-15 -8 -5 -7 -11 1 -21 15 -18 31 -7 24 17 -4 10 -2 19 3 19 10 0 4 37 -7 44
-3 2 -18 -2 -34 -10z"/>
<path d="M8670 4460 c0 -5 5 -10 11 -10 5 0 7 5 4 10 -3 6 -8 10 -11 10 -2 0
-4 -4 -4 -10z"/>
<path d="M8570 4310 c0 -5 5 -10 10 -10 6 0 10 5 10 10 0 6 -4 10 -10 10 -5 0
-10 -4 -10 -10z"/>
<path d="M8567 4269 c-4 -16 -3 -18 9 -8 16 13 19 29 5 29 -5 0 -11 -9 -14
-21z"/>
<path d="M4478 4238 c9 -9 15 -9 24 0 9 9 7 12 -12 12 -19 0 -21 -3 -12 -12z"/>
<path d="M8540 4220 c0 -5 5 -10 10 -10 6 0 10 5 10 10 0 6 -4 10 -10 10 -5 0
-10 -4 -10 -10z"/>
<path d="M8486 4183 c9 -38 12 -40 23 -12 5 16 5 26 -3 31 -21 14 -26 8 -20
-19z"/>
<path d="M6117 4163 c-2 -5 -3 -21 -3 -37 1 -35 25 -47 33 -17 3 12 9 21 14
21 5 0 9 5 9 10 0 6 -7 10 -15 10 -8 0 -15 5 -15 10 0 12 -17 14 -23 3z"/>
<path d="M4677 4143 c-10 -9 -9 -43 2 -43 5 0 11 6 14 13 6 17 -7 40 -16 30z"/>
<path d="M6149 4074 c-7 -9 -15 -26 -16 -37 -2 -12 -8 -23 -13 -25 -6 -2 -10
-8 -10 -13 0 -6 5 -7 10 -4 6 3 10 1 10 -6 0 -7 3 -9 7 -6 3 4 12 2 20 -4 10
-9 13 -6 13 14 0 14 5 29 12 33 8 5 6 11 -7 20 -10 7 -15 20 -12 29 8 19 3 19
-14 -1z"/>
<path d="M6208 4048 c-4 -11 -3 -18 3 -18 7 0 9 -10 5 -25 -8 -31 0 -32 25 -2
24 28 24 36 0 30 -13 -3 -20 1 -23 14 -3 17 -4 17 -10 1z"/>
<path d="M6257 3977 c-16 -24 -16 -28 -2 -33 22 -9 27 -1 23 32 l-3 28 -18
-27z"/>
<path d="M6160 3944 c0 -8 5 -12 10 -9 6 3 10 10 10 16 0 5 -4 9 -10 9 -5 0
-10 -7 -10 -16z"/>
<path d="M6254 3879 c-3 -6 0 -15 7 -20 8 -4 14 -14 14 -20 0 -24 23 -19 27 6
4 17 1 25 -8 25 -8 0 -14 5 -14 10 0 13 -17 13 -26 -1z"/>
<path d="M8297 3884 c-8 -8 3 -34 14 -34 5 0 9 9 9 20 0 19 -11 26 -23 14z"/>
<path d="M4480 3871 c0 -5 5 -13 10 -16 6 -3 10 -2 10 4 0 5 -4 13 -10 16 -5
3 -10 2 -10 -4z"/>
<path d="M4408 3783 c7 -3 16 -2 19 1 4 3 -2 6 -13 5 -11 0 -14 -3 -6 -6z"/>
<path d="M6493 3672 c-13 -2 -23 -10 -23 -18 0 -19 39 -18 47 1 7 20 4 22 -24
17z"/>
<path d="M8225 3659 c-4 -6 -5 -13 -2 -16 7 -7 27 6 27 18 0 12 -17 12 -25 -2z"/>
<path d="M4817 3633 c-4 -3 -7 -16 -6 -27 0 -12 3 -15 6 -8 2 6 11 12 18 12 7
0 15 -6 18 -12 2 -7 7 -10 11 -6 4 3 -1 16 -11 27 -19 22 -26 25 -36 14z"/>
<path d="M6502 3608 c6 -18 25 -20 31 -3 5 10 0 15 -14 15 -12 0 -19 -5 -17
-12z"/>
<path d="M4770 3591 c0 -14 5 -19 15 -14 17 6 15 25 -3 31 -7 2 -12 -5 -12
-17z"/>
<path d="M8206 3601 c-4 -7 -5 -15 -2 -18 9 -9 19 4 14 18 -4 11 -6 11 -12 0z"/>
<path d="M4827 3551 c-6 -25 10 -38 26 -22 8 8 7 15 -5 27 -14 14 -16 14 -21
-5z"/>
<path d="M4732 3528 c5 -15 28 -18 29 -3 0 6 -7 12 -17 13 -10 3 -15 -1 -12
-10z"/>
<path d="M6583 3515 c0 -24 13 -42 23 -32 7 7 -7 57 -16 57 -4 0 -7 -11 -7
-25z"/>
<path d="M4834 3486 c-15 -12 -16 -17 -7 -27 16 -17 64 7 56 27 -7 18 -24 18
-49 0z"/>
<path d="M8120 3478 c0 -9 5 -20 10 -23 13 -8 13 5 0 25 -8 13 -10 13 -10 -2z"/>
<path d="M8070 3469 c0 -5 5 -7 10 -4 6 3 10 8 10 11 0 2 -4 4 -10 4 -5 0 -10
-5 -10 -11z"/>
<path d="M4951 3454 c0 -11 3 -14 6 -6 3 7 2 16 -1 19 -3 4 -6 -2 -5 -13z"/>
<path d="M4910 3427 c0 -8 7 -18 16 -21 11 -4 14 -1 12 11 -4 21 -28 30 -28
10z"/>
<path d="M4697 3419 c8 -8 16 -8 30 0 16 9 14 10 -11 11 -22 0 -27 -3 -19 -11z"/>
<path d="M4851 3384 c0 -11 3 -14 6 -6 3 7 2 16 -1 19 -3 4 -6 -2 -5 -13z"/>
<path d="M4930 3374 c0 -8 5 -12 10 -9 6 4 8 11 5 16 -9 14 -15 11 -15 -7z"/>
<path d="M6830 3340 c0 -5 5 -10 10 -10 6 0 10 5 10 10 0 6 -4 10 -10 10 -5 0
-10 -4 -10 -10z"/>
<path d="M4996 3303 c-11 -11 -6 -23 8 -23 8 0 17 4 20 9 7 10 -19 23 -28 14z"/>
<path d="M7970 3299 c0 -5 5 -7 10 -4 6 3 10 8 10 11 0 2 -4 4 -10 4 -5 0 -10
-5 -10 -11z"/>
<path d="M5040 3271 c0 -14 18 -23 31 -15 8 4 7 9 -2 15 -18 11 -29 11 -29 0z"/>
<path d="M5180 3269 c0 -5 -5 -7 -10 -4 -6 3 -13 -2 -17 -11 -4 -10 -2 -19 5
-22 7 -2 10 -8 7 -12 -3 -5 -12 -7 -19 -4 -8 3 -17 1 -20 -4 -6 -10 16 -34 30
-31 24 4 55 -2 50 -10 -4 -5 4 -7 16 -3 21 5 21 6 -6 27 -24 19 -26 24 -13 37
10 10 12 19 5 31 -10 19 -28 23 -28 6z"/>
<path d="M5210 3120 c0 -5 7 -10 15 -10 8 0 15 5 15 10 0 6 -7 10 -15 10 -8 0
-15 -4 -15 -10z"/>
<path d="M4778 3113 c7 -3 16 -2 19 1 4 3 -2 6 -13 5 -11 0 -14 -3 -6 -6z"/>
<path d="M5247 3106 c-9 -23 38 -75 67 -76 15 0 16 3 6 15 -7 8 -19 15 -27 15
-10 0 -12 6 -8 20 4 14 2 20 -8 20 -9 0 -17 5 -19 12 -3 7 -7 5 -11 -6z"/>
<path d="M4277 3104 c-10 -11 -9 -52 3 -59 6 -3 13 1 16 10 8 19 -8 60 -19 49z"/>
<path d="M5386 3052 c-11 -10 -6 -21 13 -32 19 -10 51 -4 51 9 0 9 -58 30 -64
23z"/>
<path d="M5204 3019 c-9 -14 -4 -17 44 -25 27 -4 42 -3 42 4 0 18 -20 24 -35
12 -9 -7 -15 -8 -15 -2 0 14 -28 23 -36 11z"/>
<path d="M5430 2992 c1 -20 20 -33 46 -30 44 5 37 32 -8 34 -21 2 -38 0 -38
-4z"/>
<path d="M5470 2944 c0 -13 31 -35 43 -31 9 4 9 6 0 6 -7 1 -10 8 -7 16 4 10
0 15 -15 15 -12 0 -21 -3 -21 -6z"/>
<path d="M7610 2920 c0 -5 7 -10 16 -10 8 0 12 5 9 10 -3 6 -10 10 -16 10 -5
0 -9 -4 -9 -10z"/>
<path d="M5396 2895 c4 -8 17 -15 30 -15 13 0 24 -4 24 -10 0 -5 8 -10 18 -11
10 0 12 -3 4 -6 -6 -2 -9 -9 -6 -15 4 -6 1 -14 -7 -18 -9 -6 -6 -10 13 -15 17
-5 25 -12 21 -21 -3 -8 -1 -14 5 -14 6 0 15 14 21 30 5 17 15 30 21 30 7 0 10
6 8 13 -3 6 -11 12 -19 12 -8 0 -19 9 -25 20 -5 11 -18 19 -28 17 -11 -2 -15
1 -11 7 3 6 2 11 -4 11 -5 0 -12 -6 -15 -12 -5 -10 -7 -10 -12 0 -8 18 -45 16
-38 -3z"/>
<path d="M7645 2880 c-3 -5 1 -10 9 -10 9 0 16 5 16 10 0 6 -4 10 -9 10 -6 0
-13 -4 -16 -10z"/>
<path d="M5308 2869 c-22 -12 -23 -29 -3 -29 8 0 15 5 15 10 0 6 7 10 15 10 8
0 15 5 15 10 0 13 -20 12 -42 -1z"/>
<path d="M7558 2873 c7 -3 16 -2 19 1 4 3 -2 6 -13 5 -11 0 -14 -3 -6 -6z"/>
<path d="M5570 2845 c0 -8 2 -15 4 -15 2 0 11 -3 20 -6 10 -4 16 -1 16 9 0 8
-7 18 -16 21 -22 9 -24 8 -24 -9z"/>
<path d="M5360 2836 c0 -9 7 -16 16 -16 9 0 14 5 12 12 -6 18 -28 21 -28 4z"/>
<path d="M7490 2821 c0 -6 5 -13 10 -16 6 -3 10 1 10 9 0 9 -4 16 -10 16 -5 0
-10 -4 -10 -9z"/>
<path d="M7540 2820 c0 -5 6 -10 14 -10 8 0 18 5 21 10 3 6 -3 10 -14 10 -12
0 -21 -4 -21 -10z"/>
<path d="M7324 2738 c-3 -4 -2 -9 3 -9 36 -5 63 -19 63 -31 0 -5 -4 -7 -9 -3
-13 8 -22 -10 -15 -29 8 -21 24 -21 24 0 0 8 5 12 11 8 8 -4 9 1 4 15 -4 13
-1 28 6 37 16 20 5 28 -20 14 -13 -6 -21 -7 -21 -1 0 11 -39 10 -46 -1z"/>
<path d="M7210 2714 c0 -8 5 -12 10 -9 6 3 10 10 10 16 0 5 -4 9 -10 9 -5 0
-10 -7 -10 -16z"/>
<path d="M7254 2693 c-11 -26 -11 -64 0 -60 9 3 21 77 12 77 -2 0 -7 -8 -12
-17z"/>
<path d="M7300 2687 c-9 -7 -14 -20 -12 -29 2 -10 -8 -28 -23 -42 -23 -21 -24
-24 -8 -31 47 -20 73 -3 53 35 -6 10 -10 27 -9 37 0 16 1 16 8 -1 7 -19 8 -18
14 4 8 30 -3 43 -23 27z"/>
<path d="M5570 2681 c0 -11 26 -22 34 -14 12 12 5 23 -14 23 -11 0 -20 -4 -20
-9z"/>
<path d="M5637 2673 c-14 -13 -6 -33 13 -33 11 0 20 4 20 9 0 13 -26 32 -33
24z"/>
<path d="M5475 2650 c3 -5 8 -10 11 -10 2 0 4 5 4 10 0 6 -5 10 -11 10 -5 0
-7 -4 -4 -10z"/>
<path d="M6953 2624 c-25 -27 -28 -34 -13 -34 13 0 50 37 50 50 0 16 -13 10
-37 -16z"/>
<path d="M6535 2630 c-10 -17 12 -37 25 -24 8 8 6 15 -4 23 -10 9 -16 9 -21 1z"/>
<path d="M7325 2629 c-4 -6 -5 -13 -2 -16 7 -7 27 6 27 18 0 12 -17 12 -25 -2z"/>
<path d="M6830 2620 c0 -5 5 -10 11 -10 5 0 7 5 4 10 -3 6 -8 10 -11 10 -2 0
-4 -4 -4 -10z"/>
<path d="M6880 2620 c-8 -5 -11 -12 -8 -16 10 -9 38 3 38 16 0 12 -10 13 -30
0z"/>
<path d="M7110 2620 c0 -5 7 -10 15 -10 8 0 15 5 15 10 0 6 -7 10 -15 10 -8 0
-15 -4 -15 -10z"/>
<path d="M7215 2621 c-3 -5 -1 -12 5 -16 5 -3 10 1 10 9 0 18 -6 21 -15 7z"/>
<path d="M5975 2608 c-4 -10 -15 -18 -25 -18 -24 0 -33 -15 -17 -28 15 -12 48
-12 40 1 -3 5 0 13 7 17 6 4 10 16 8 26 -5 18 -5 18 -13 2z"/>
<path d="M7372 2611 c4 -13 18 -16 19 -4 0 4 -5 9 -11 12 -7 2 -11 -2 -8 -8z"/>
<path d="M5857 2593 c8 -23 34 -53 45 -53 16 0 8 27 -15 48 -28 27 -39 28 -30
5z"/>
<path d="M6985 2600 c-3 -5 1 -10 9 -10 9 0 16 5 16 10 0 6 -4 10 -9 10 -6 0
-13 -4 -16 -10z"/>
<path d="M7065 2600 c-16 -7 -17 -9 -3 -9 9 -1 20 4 23 9 7 11 7 11 -20 0z"/>
<path d="M7171 2601 c-8 -6 -9 -11 -3 -15 6 -3 14 -1 17 5 9 14 2 20 -14 10z"/>
<path d="M6432 2583 c-47 -6 -34 -27 17 -28 44 -1 63 11 40 26 -8 5 -16 8 -19
7 -3 -1 -20 -3 -38 -5z"/>
<path d="M6520 2580 c0 -5 5 -10 11 -10 5 0 7 5 4 10 -3 6 -8 10 -11 10 -2 0
-4 -4 -4 -10z"/>
<path d="M7224 2564 c3 -9 6 -20 6 -26 0 -6 6 -6 15 2 17 14 21 35 5 25 -5 -3
-10 -1 -10 4 0 6 -5 11 -11 11 -6 0 -8 -7 -5 -16z"/>
<path d="M5602 2558 c3 -7 13 -15 22 -16 12 -3 17 1 14 10 -3 7 -13 15 -22 16
-12 3 -17 -1 -14 -10z"/>
<path d="M5816 2556 c3 -9 11 -16 16 -16 13 0 5 23 -10 28 -7 2 -10 -2 -6 -12z"/>
<path d="M6767 2564 c-10 -11 4 -33 18 -28 22 9 27 34 6 34 -10 0 -20 -3 -24
-6z"/>
<path d="M6825 2559 c-4 -6 -5 -13 -2 -16 7 -7 27 6 27 18 0 12 -17 12 -25 -2z"/>
<path d="M6295 2541 c-6 -11 9 -23 19 -14 9 9 7 23 -3 23 -6 0 -12 -4 -16 -9z"/>
<path d="M5907 2534 c-9 -9 4 -34 18 -34 19 0 26 27 9 34 -19 7 -19 7 -27 0z"/>
<path d="M6484 2528 c-4 -5 -1 -14 7 -18 14 -9 29 -4 29 10 0 13 -29 20 -36 8z"/>
<path d="M6670 2530 c0 -5 5 -10 11 -10 5 0 7 5 4 10 -3 6 -8 10 -11 10 -2 0
-4 -4 -4 -10z"/>
<path d="M6875 2530 c-3 -5 1 -10 9 -10 9 0 16 5 16 10 0 6 -4 10 -9 10 -6 0
-13 -4 -16 -10z"/>
<path d="M6790 2520 c0 -5 7 -10 15 -10 8 0 15 5 15 10 0 6 -7 10 -15 10 -8 0
-15 -4 -15 -10z"/>
<path d="M7190 2520 c0 -6 7 -10 15 -10 20 0 19 -16 -1 -24 -8 -3 -13 -10 -9
-15 3 -6 12 -8 21 -4 8 3 12 8 10 11 -3 3 -1 10 4 17 7 8 3 15 -15 23 -15 7
-25 8 -25 2z"/>
<path d="M6017 2512 c-20 -2 -35 -7 -32 -13 8 -12 85 -12 85 0 0 14 -11 17
-53 13z"/>
<path d="M6595 2510 c-8 -14 13 -22 31 -12 14 8 14 10 -5 15 -11 3 -23 1 -26
-3z"/>
<path d="M6835 2510 c4 -6 11 -8 16 -5 14 9 11 15 -7 15 -8 0 -12 -5 -9 -10z"/>
<path d="M6325 2500 c3 -5 10 -10 16 -10 5 0 9 5 9 10 0 6 -7 10 -16 10 -8 0
-12 -4 -9 -10z"/>
<path d="M6100 2480 c0 -5 5 -10 10 -10 6 0 10 5 10 10 0 6 -4 10 -10 10 -5 0
-10 -4 -10 -10z"/>
<path d="M5940 2470 c0 -5 5 -10 10 -10 6 0 10 5 10 10 0 6 -4 10 -10 10 -5 0
-10 -4 -10 -10z"/>
<path d="M6530 2464 c0 -17 22 -14 28 4 2 7 -3 12 -12 12 -9 0 -16 -7 -16 -16z"/>
<path d="M6630 2470 c0 -5 7 -10 15 -10 8 0 15 5 15 10 0 6 -7 10 -15 10 -8 0
-15 -4 -15 -10z"/>
<path d="M6312 2435 c-17 -9 -20 -15 -12 -20 7 -4 15 -4 19 1 3 5 12 9 19 9
13 0 18 18 5 21 -4 1 -19 -4 -31 -11z"/>
<path d="M6745 2440 c4 -6 11 -8 16 -5 14 9 11 15 -7 15 -8 0 -12 -5 -9 -10z"/>
<path d="M7140 2446 c0 -2 7 -7 16 -10 8 -3 12 -2 9 4 -6 10 -25 14 -25 6z"/>
<path d="M6085 2430 c3 -5 11 -10 16 -10 6 0 7 5 4 10 -3 6 -11 10 -16 10 -6
0 -7 -4 -4 -10z"/>
<path d="M6240 2430 c0 -5 5 -10 10 -10 6 0 10 5 10 10 0 6 -4 10 -10 10 -5 0
-10 -4 -10 -10z"/>
<path d="M6660 2430 c0 -5 7 -10 15 -10 8 0 15 5 15 10 0 6 -7 10 -15 10 -8 0
-15 -4 -15 -10z"/>
<path d="M7090 2430 c0 -5 5 -10 10 -10 6 0 10 5 10 10 0 6 -4 10 -10 10 -5 0
-10 -4 -10 -10z"/>
<path d="M6935 2420 c-3 -5 -1 -10 4 -10 6 0 11 5 11 10 0 6 -2 10 -4 10 -3 0
-8 -4 -11 -10z"/>
<path d="M6625 2410 c-3 -5 -1 -10 4 -10 6 0 11 5 11 10 0 6 -2 10 -4 10 -3 0
-8 -4 -11 -10z"/>
<path d="M6798 2403 c7 -3 16 -2 19 1 4 3 -2 6 -13 5 -11 0 -14 -3 -6 -6z"/>
<path d="M5932 2388 c6 -18 28 -21 28 -4 0 9 -7 16 -16 16 -9 0 -14 -5 -12
-12z"/>
<path d="M7911 2359 c-16 -53 -8 -61 9 -9 7 22 11 42 8 45 -3 3 -10 -13 -17
-36z"/>
<path d="M6268 2383 c7 -3 16 -2 19 1 4 3 -2 6 -13 5 -11 0 -14 -3 -6 -6z"/>
<path d="M6738 2383 c7 -3 16 -2 19 1 4 3 -2 6 -13 5 -11 0 -14 -3 -6 -6z"/>
<path d="M5990 2315 c0 -8 7 -15 15 -15 8 0 15 7 15 15 0 8 -7 15 -15 15 -8 0
-15 -7 -15 -15z"/>
<path d="M7135 2320 c-3 -5 1 -10 9 -10 9 0 16 5 16 10 0 6 -4 10 -9 10 -6 0
-13 -4 -16 -10z"/>
<path d="M7552 2283 c-20 -8 -36 -43 -19 -43 8 0 19 11 25 25 6 14 11 25 9 24
-1 0 -8 -3 -15 -6z"/>
<path d="M4552 2203 c5 -25 28 -28 28 -4 0 12 -6 21 -16 21 -9 0 -14 -7 -12
-17z"/>
<path d="M7812 2115 c-12 -26 -18 -44 -12 -40 14 9 42 64 38 76 -2 6 -14 -11
-26 -36z"/>
<path d="M6225 2061 c-3 -5 -1 -12 5 -16 5 -3 10 1 10 9 0 18 -6 21 -15 7z"/>
<path d="M6435 1659 c-7 -11 22 -38 42 -39 21 0 25 21 7 35 -23 17 -41 19 -49
4z"/>
<path d="M5880 1592 c0 -12 34 -42 48 -42 13 0 4 31 -12 42 -15 10 -36 10 -36
0z"/>
<path d="M6325 1579 c-4 -5 -4 -22 -1 -37 l6 -27 -16 22 -16 23 -18 -22 c-15
-19 -20 -20 -33 -9 -9 7 -32 14 -52 15 -28 3 -35 0 -33 -13 2 -10 -4 -15 -14
-15 -10 1 -18 -4 -18 -12 0 -13 80 -54 107 -54 8 0 25 -12 38 -26 14 -15 25
-22 25 -16 0 7 26 11 71 11 40 0 75 3 78 8 3 5 20 8 36 8 17 -1 41 5 55 12 14
7 35 13 48 13 12 0 22 6 22 14 0 8 8 17 18 19 15 4 15 5 0 6 -9 0 -20 -3 -23
-9 -12 -20 -25 -9 -25 20 0 35 -17 41 -22 8 -3 -21 -4 -21 -21 -4 -12 12 -37
20 -70 22 -101 8 -102 8 -105 32 -4 23 -26 30 -37 11z"/>
<path d="M6398 1563 c7 -3 16 -2 19 1 4 3 -2 6 -13 5 -11 0 -14 -3 -6 -6z"/>
<path d="M6895 1410 c-3 -5 1 -10 10 -10 9 0 13 5 10 10 -3 6 -8 10 -10 10 -2
0 -7 -4 -10 -10z"/>
<path d="M6610 1390 c0 -5 5 -10 10 -10 6 0 10 5 10 10 0 6 -4 10 -10 10 -5 0
-10 -4 -10 -10z"/>
<path d="M6230 1370 c0 -5 9 -10 21 -10 11 0 17 5 14 10 -3 6 -13 10 -21 10
-8 0 -14 -4 -14 -10z"/>
<path d="M6520 1365 c-7 -9 -11 -18 -8 -21 9 -9 59 16 53 26 -9 15 -31 12 -45
-5z"/>
<path d="M6478 1323 c7 -3 16 -2 19 1 4 3 -2 6 -13 5 -11 0 -14 -3 -6 -6z"/>
<path d="M6300 1310 c0 -5 7 -10 15 -10 8 0 15 5 15 10 0 6 -7 10 -15 10 -8 0
-15 -4 -15 -10z"/>
</g>
</svg>
